<?xml version="1.0" encoding="UTF-8"?>
<svg id="Layer_2" xmlns="http://www.w3.org/2000/svg" xmlns:xlink="http://www.w3.org/1999/xlink" viewBox="0 0 31.31 27.91">
  <defs>
    <style>
      .cls-1 {
        fill: none;
      }

      .cls-2 {
        clip-path: url(#clippath);
      }
    </style>
    <clipPath id="clippath">
      <rect class="cls-1" x="10.41" y="4.66" width="20.9" height="23.25"/>
    </clipPath>
  </defs>
  <g id="Layer_1-2" data-name="Layer_1">
    <g class="cls-2">
      <path d="M31.25,27.2l-2.03-5.86c.41-.71.73-1.45.97-2.23s.39-1.57.45-2.39c.06-.81.02-1.61-.1-2.42-.13-.8-.34-1.58-.65-2.34-.31-.76-.69-1.47-1.16-2.14-.47-.67-1.01-1.28-1.61-1.83-.61-.55-1.27-1.03-1.98-1.44s-1.47-.73-2.26-.96c.21.47.4.95.56,1.44.16.49.29.99.38,1.51.09.51.16,1.02.18,1.54.03.52.03,1.03,0,1.55-.03.52-.1,1.03-.2,1.53-.1.51-.23,1.01-.39,1.5-.16.49-.35.97-.57,1.44-.22.47-.47.92-.75,1.36-.28.44-.58.86-.91,1.26-.33.4-.69.78-1.06,1.14-.38.36-.78.69-1.2,1.01-.42.31-.86.59-1.31.85-.46.26-.93.48-1.41.68s-.98.37-1.48.51c-.5.14-1.02.24-1.53.32-.52.08-1.04.13-1.57.14.83.88,1.79,1.6,2.87,2.17,1.08.57,2.22.94,3.43,1.14s2.41.19,3.61-.02c1.2-.21,2.34-.59,3.42-1.17l5.8,2.22c.16.06.3.03.42-.08.12-.11.16-.25.1-.41Z"/>
    </g>
    <path d="M22.26,10.79c0-.42-.03-.83-.08-1.24-.05-.42-.13-.82-.22-1.23-.09-.4-.22-.8-.36-1.19-.15-.39-.31-.77-.5-1.14s-.4-.73-.63-1.08-.48-.68-.75-1c-.27-.32-.56-.63-.86-.91-.31-.29-.63-.56-.96-.81-.34-.25-.69-.48-1.05-.69-.36-.21-.73-.4-1.12-.57-.39-.17-.78-.31-1.18-.44-.41-.13-.81-.22-1.23-.3-.41-.08-.83-.13-1.25-.16-.42-.03-.84-.04-1.27-.02-.42.02-.84.06-1.26.13-.42.06-.83.15-1.23.27-.41.11-.8.24-1.19.4-.39.16-.77.34-1.14.54s-.73.42-1.07.66c-.34.24-.67.5-.98.78-.31.28-.61.57-.89.89-.28.31-.54.64-.78.98-.24.34-.46.69-.66,1.06-.2.37-.38.74-.54,1.13-.16.39-.29.78-.4,1.18-.11.4-.2.81-.26,1.22-.06.41-.1.82-.11,1.24-.01.41,0,.83.03,1.24.04.42.09.83.18,1.23s.19.81.32,1.2.28.78.45,1.16c.18.38.37.74.59,1.1l-.7,2.03L.02,21.69c-.05.16-.02.3.1.41.13.11.27.15.42.08l3.23-1.23,1.99-.77c1.39.79,2.89,1.26,4.48,1.41.34.03.68.04,1.02.04.72,0,1.44-.07,2.15-.21s1.4-.34,2.06-.61c.67-.28,1.3-.61,1.9-1.01s1.16-.84,1.67-1.35.97-1.05,1.37-1.65c.4-.59.73-1.22,1.01-1.88s.48-1.34.63-2.04.21-1.4.21-2.11ZM12.65,13.29c0,.23-.09.44-.26.61s-.38.25-.61.25h-5.57c-.24,0-.44-.09-.61-.26-.17-.17-.25-.37-.25-.6v-.08c0-.24.08-.44.26-.61.17-.17.38-.25.62-.25h5.55c.24,0,.45.08.61.25.17.17.26.37.26.61v.08ZM16.86,9.5c0,.24-.09.44-.26.61-.17.17-.38.25-.62.25H6.03c-.24,0-.45-.08-.62-.25-.17-.17-.26-.37-.26-.61v-.08c0-.24.09-.44.26-.6.17-.17.38-.25.61-.25h9.95c.24,0,.45.08.62.25.17.17.26.37.26.61v.07Z"/>
  </g>
</svg>