<svg xmlns="http://www.w3.org/2000/svg" width="12.608" height="11.667" viewBox="0 0 12.608 11.667">
  <path id="admin" d="M218.3-722.919a2.446,2.446,0,0,1-1.794-.746,2.446,2.446,0,0,1-.746-1.794,2.446,2.446,0,0,1,.746-1.794A2.446,2.446,0,0,1,218.3-728a2.447,2.447,0,0,1,1.794.746,2.447,2.447,0,0,1,.746,1.794,2.447,2.447,0,0,1-.746,1.794A2.447,2.447,0,0,1,218.3-722.919Zm-6.3,6.586v-1.223a1.685,1.685,0,0,1,.318-.976,2.145,2.145,0,0,1,.859-.717,13.178,13.178,0,0,1,2.576-.917,10.967,10.967,0,0,1,2.552-.306,10.967,10.967,0,0,1,2.552.306,13.178,13.178,0,0,1,2.576.917,2.145,2.145,0,0,1,.859.717,1.685,1.685,0,0,1,.318.976v1.223Z" transform="translate(-212 728)" fill="#000064"/>
</svg>
