<svg xmlns="http://www.w3.org/2000/svg" width="21.237" height="21.237" viewBox="0 0 21.237 21.237">
  <path id="bl-attach" d="M231.551-867.294a5.569,5.569,0,0,1-1.686,4.089,5.569,5.569,0,0,1-4.089,1.687,5.569,5.569,0,0,1-4.089-1.687A5.569,5.569,0,0,1,220-867.294v-8.548a4.01,4.01,0,0,1,1.213-2.945A4.01,4.01,0,0,1,224.158-880a4.01,4.01,0,0,1,2.946,1.213,4.01,4.01,0,0,1,1.213,2.945v8.086a2.452,2.452,0,0,1-.739,1.8,2.452,2.452,0,0,1-1.8.739,2.452,2.452,0,0,1-1.8-.739,2.452,2.452,0,0,1-.739-1.8V-876.3h1.848v8.548a.673.673,0,0,0,.2.5.673.673,0,0,0,.5.2.673.673,0,0,0,.5-.2.673.673,0,0,0,.2-.5v-8.086a2.335,2.335,0,0,0-.682-1.64,2.193,2.193,0,0,0-1.629-.67,2.231,2.231,0,0,0-1.64.67,2.23,2.23,0,0,0-.67,1.64v8.548a3.691,3.691,0,0,0,1.132,2.784,3.827,3.827,0,0,0,2.8,1.144,3.724,3.724,0,0,0,2.749-1.144,3.977,3.977,0,0,0,1.178-2.784v-9.01h1.848Z" transform="translate(-764.749 466.69) rotate(45)" fill="#808597"/>
</svg>
