<svg xmlns="http://www.w3.org/2000/svg" xmlns:xlink="http://www.w3.org/1999/xlink" width="95" zoomAndPan="magnify" viewBox="0 0 71.25 32.249999" height="43" preserveAspectRatio="xMidYMid meet" version="1.0"><defs><g/></defs><g fill="#ffffff" fill-opacity="1"><g transform="translate(10.75717, 22.21847)"><g><path d="M 10.25 -13.921875 C 8.875 -13.921875 7.8125 -13.53125 7.0625 -12.75 C 6.40625 -12.0625 6.078125 -11.179688 6.078125 -10.109375 C 6.078125 -9.242188 6.535156 -8.414062 7.453125 -7.625 C 8.398438 -6.8125 9.414062 -6.40625 10.5 -6.40625 C 11.59375 -6.40625 12.5 -6.769531 13.21875 -7.5 C 13.914062 -8.207031 14.273438 -9.101562 14.296875 -10.1875 C 14.273438 -11.007812 13.890625 -11.816406 13.140625 -12.609375 C 12.316406 -13.484375 11.351562 -13.921875 10.25 -13.921875 Z M 10.1875 -12.359375 C 10.757812 -12.359375 11.34375 -12.082031 11.9375 -11.53125 C 12.488281 -11.019531 12.765625 -10.570312 12.765625 -10.1875 C 12.765625 -9.632812 12.546875 -9.148438 12.109375 -8.734375 C 11.640625 -8.296875 11.09375 -8.078125 10.46875 -8.078125 C 9.8125 -8.078125 9.1875 -8.328125 8.59375 -8.828125 C 7.957031 -9.359375 7.65625 -9.929688 7.6875 -10.546875 C 7.6875 -10.972656 7.96875 -11.378906 8.53125 -11.765625 C 9.082031 -12.160156 9.632812 -12.359375 10.1875 -12.359375 Z M 11.828125 -2.296875 C 12.578125 -2.378906 13.210938 -2.488281 13.734375 -2.625 C 14.015625 -2.695312 14.332031 -2.800781 14.6875 -2.9375 C 14.945312 -3.039062 15.148438 -3.101562 15.296875 -3.125 C 15.515625 -3.164062 15.820312 -3.144531 16.21875 -3.0625 C 16.894531 -2.957031 17.367188 -2.734375 17.640625 -2.390625 C 17.835938 -2.128906 17.898438 -1.832031 17.828125 -1.5 C 17.742188 -1.15625 17.613281 -0.953125 17.4375 -0.890625 C 17.28125 -0.835938 16.921875 -0.847656 16.359375 -0.921875 C 15.734375 -0.992188 15.1875 -1.046875 14.71875 -1.078125 C 13.90625 -1.128906 13.035156 -1.128906 12.109375 -1.078125 C 10.390625 -0.960938 8.925781 -0.796875 7.71875 -0.578125 C 7.039062 -0.472656 6.328125 -0.316406 5.578125 -0.109375 C 5.023438 0.046875 4.628906 0.109375 4.390625 0.078125 C 4.085938 0.0234375 3.5625 -0.1875 2.8125 -0.5625 C 1.894531 -1.039062 1.441406 -1.4375 1.453125 -1.75 C 1.453125 -2.039062 1.738281 -2.148438 2.3125 -2.078125 C 3.28125 -2.023438 4.472656 -2.003906 5.890625 -2.015625 C 7.578125 -2.035156 9.101562 -2.097656 10.46875 -2.203125 L 10.453125 -2.296875 C 10.378906 -2.722656 10.289062 -3.085938 10.1875 -3.390625 C 10 -3.941406 9.75 -4.394531 9.4375 -4.75 C 8.96875 -5.207031 8.878906 -5.53125 9.171875 -5.71875 C 9.460938 -5.90625 10.015625 -5.863281 10.828125 -5.59375 C 11.566406 -5.226562 12.003906 -4.929688 12.140625 -4.703125 C 12.242188 -4.523438 12.226562 -4.179688 12.09375 -3.671875 C 12.03125 -3.429688 11.976562 -3.238281 11.9375 -3.09375 C 11.875 -2.84375 11.832031 -2.582031 11.8125 -2.3125 Z M 11.828125 -2.296875 "/></g></g></g><g fill="#ee2c27" fill-opacity="1"><g transform="translate(2.903084, 13.269039)"><g><path d="M 6.703125 0.359375 C 6.660156 0.304688 6.597656 0.242188 6.515625 0.171875 C 6.429688 0.0976562 6.34375 0.0351562 6.25 -0.015625 C 6.15625 -0.0664062 6.066406 -0.09375 5.984375 -0.09375 C 5.910156 -0.101562 5.851562 -0.0625 5.8125 0.03125 L 5.625 0.421875 L 5.578125 0.40625 L 5.578125 -2.078125 C 5.578125 -2.109375 5.597656 -2.144531 5.640625 -2.1875 C 5.691406 -2.238281 5.734375 -2.289062 5.765625 -2.34375 C 5.796875 -2.394531 5.789062 -2.457031 5.75 -2.53125 C 5.707031 -2.601562 5.601562 -2.6875 5.4375 -2.78125 C 5.320312 -2.84375 5.210938 -2.898438 5.109375 -2.953125 C 5.003906 -3.015625 4.914062 -3.046875 4.84375 -3.046875 C 4.769531 -3.054688 4.710938 -3.015625 4.671875 -2.921875 L 4.546875 -2.59375 L 3.484375 -2.59375 L 3.671875 -4.5625 L 6.03125 -4.5625 C 6.15625 -4.5625 6.234375 -4.597656 6.265625 -4.671875 C 6.304688 -4.753906 6.257812 -4.859375 6.125 -4.984375 C 6.050781 -5.046875 5.960938 -5.109375 5.859375 -5.171875 C 5.765625 -5.242188 5.671875 -5.300781 5.578125 -5.34375 C 5.484375 -5.382812 5.394531 -5.398438 5.3125 -5.390625 C 5.238281 -5.390625 5.179688 -5.347656 5.140625 -5.265625 L 4.984375 -4.90625 L 1.328125 -4.90625 C 1.285156 -4.90625 1.222656 -4.910156 1.140625 -4.921875 C 1.066406 -4.929688 0.992188 -4.941406 0.921875 -4.953125 C 0.847656 -4.960938 0.789062 -4.972656 0.75 -4.984375 L 0.9375 -4.53125 C 0.976562 -4.53125 1.046875 -4.535156 1.140625 -4.546875 C 1.242188 -4.554688 1.328125 -4.5625 1.390625 -4.5625 L 2.703125 -4.5625 L 2.53125 -2.59375 L 1.515625 -2.59375 C 1.441406 -2.59375 1.34375 -2.601562 1.21875 -2.625 C 1.09375 -2.644531 1.003906 -2.660156 0.953125 -2.671875 L 1.125 -2.21875 C 1.164062 -2.21875 1.226562 -2.222656 1.3125 -2.234375 C 1.40625 -2.253906 1.5 -2.265625 1.59375 -2.265625 L 2.5 -2.265625 L 2.25 0.4375 L 0.890625 0.4375 C 0.816406 0.4375 0.71875 0.425781 0.59375 0.40625 C 0.476562 0.394531 0.394531 0.382812 0.34375 0.375 L 0.515625 0.8125 C 0.546875 0.8125 0.601562 0.800781 0.6875 0.78125 C 0.769531 0.769531 0.851562 0.765625 0.9375 0.765625 L 6.640625 0.765625 C 6.734375 0.765625 6.796875 0.726562 6.828125 0.65625 C 6.867188 0.582031 6.828125 0.484375 6.703125 0.359375 Z M 4.578125 0.4375 L 3.203125 0.4375 L 3.453125 -2.265625 L 4.578125 -2.265625 Z M 4.578125 0.4375 "/></g></g></g><g fill="#ee2c27" fill-opacity="1"><g transform="translate(2.903084, 22.212984)"><g><path d="M 6.453125 -5.09375 C 6.328125 -5.195312 6.203125 -5.285156 6.078125 -5.359375 C 5.953125 -5.429688 5.84375 -5.472656 5.75 -5.484375 C 5.65625 -5.492188 5.585938 -5.457031 5.546875 -5.375 L 5.40625 -5 L 3.796875 -5 C 3.765625 -5 3.710938 -5 3.640625 -5 C 3.578125 -5.007812 3.507812 -5.019531 3.4375 -5.03125 C 3.363281 -5.039062 3.3125 -5.050781 3.28125 -5.0625 L 3.40625 -4.609375 C 3.445312 -4.617188 3.515625 -4.628906 3.609375 -4.640625 C 3.703125 -4.648438 3.765625 -4.65625 3.796875 -4.65625 L 6.390625 -4.65625 C 6.535156 -4.65625 6.613281 -4.695312 6.625 -4.78125 C 6.644531 -4.875 6.585938 -4.976562 6.453125 -5.09375 Z M 3.015625 -5.09375 C 2.835938 -5.25 2.679688 -5.363281 2.546875 -5.4375 C 2.421875 -5.507812 2.332031 -5.484375 2.28125 -5.359375 L 2.125 -5 L 0.90625 -5 C 0.863281 -5 0.789062 -5.003906 0.6875 -5.015625 C 0.59375 -5.035156 0.519531 -5.050781 0.46875 -5.0625 L 0.59375 -4.625 L 0.90625 -4.65625 L 2.9375 -4.65625 C 3.0625 -4.65625 3.140625 -4.695312 3.171875 -4.78125 C 3.203125 -4.875 3.148438 -4.976562 3.015625 -5.09375 Z M 6.359375 -2.09375 L 6.359375 -3.46875 C 6.359375 -3.476562 6.375 -3.492188 6.40625 -3.515625 C 6.4375 -3.535156 6.46875 -3.5625 6.5 -3.59375 C 6.539062 -3.625 6.5625 -3.664062 6.5625 -3.71875 C 6.570312 -3.769531 6.546875 -3.828125 6.484375 -3.890625 C 6.429688 -3.953125 6.332031 -4.03125 6.1875 -4.125 C 5.976562 -4.257812 5.816406 -4.34375 5.703125 -4.375 C 5.585938 -4.40625 5.515625 -4.378906 5.484375 -4.296875 L 5.328125 -3.96875 L 4.625 -3.96875 C 4.613281 -3.96875 4.570312 -3.976562 4.5 -4 C 4.425781 -4.03125 4.332031 -4.0625 4.21875 -4.09375 C 4.113281 -4.125 4.003906 -4.148438 3.890625 -4.171875 C 3.785156 -4.203125 3.695312 -4.222656 3.625 -4.234375 L 3.625 -2.03125 C 3.625 -1.957031 3.65625 -1.898438 3.71875 -1.859375 C 3.789062 -1.828125 3.875 -1.804688 3.96875 -1.796875 C 4.0625 -1.796875 4.160156 -1.804688 4.265625 -1.828125 C 4.367188 -1.847656 4.453125 -1.875 4.515625 -1.90625 C 4.578125 -1.945312 4.609375 -1.988281 4.609375 -2.03125 L 4.609375 -2.140625 L 5.375 -2.140625 L 5.375 -2.0625 C 5.375 -1.988281 5.40625 -1.9375 5.46875 -1.90625 C 5.53125 -1.875 5.609375 -1.851562 5.703125 -1.84375 C 5.804688 -1.832031 5.90625 -1.835938 6 -1.859375 C 6.101562 -1.878906 6.1875 -1.910156 6.25 -1.953125 C 6.320312 -1.992188 6.359375 -2.039062 6.359375 -2.09375 Z M 3.171875 -3.96875 C 2.992188 -4.125 2.84375 -4.234375 2.71875 -4.296875 C 2.601562 -4.359375 2.519531 -4.332031 2.46875 -4.21875 L 2.328125 -3.859375 L 0.59375 -3.859375 C 0.570312 -3.859375 0.53125 -3.863281 0.46875 -3.875 C 0.414062 -3.882812 0.359375 -3.894531 0.296875 -3.90625 C 0.234375 -3.914062 0.1875 -3.921875 0.15625 -3.921875 L 0.28125 -3.484375 C 0.320312 -3.484375 0.378906 -3.488281 0.453125 -3.5 C 0.523438 -3.507812 0.582031 -3.515625 0.625 -3.515625 L 1.34375 -3.515625 L 1.34375 -2.828125 C 1.300781 -2.859375 1.269531 -2.878906 1.25 -2.890625 C 1.226562 -2.898438 1.203125 -2.90625 1.171875 -2.90625 L 0.484375 -3 C 0.515625 -2.332031 0.492188 -1.75 0.421875 -1.25 C 0.359375 -0.75 0.285156 -0.375 0.203125 -0.125 C 0.171875 -0.0195312 0.171875 0.046875 0.203125 0.078125 C 0.242188 0.109375 0.296875 0.109375 0.359375 0.078125 C 0.429688 0.0546875 0.488281 0.0234375 0.53125 -0.015625 C 0.5625 -0.0546875 0.613281 -0.140625 0.6875 -0.265625 C 0.769531 -0.398438 0.851562 -0.578125 0.9375 -0.796875 C 1.019531 -1.015625 1.09375 -1.265625 1.15625 -1.546875 C 1.21875 -1.835938 1.253906 -2.164062 1.265625 -2.53125 C 1.265625 -2.539062 1.269531 -2.554688 1.28125 -2.578125 C 1.289062 -2.597656 1.3125 -2.632812 1.34375 -2.6875 L 1.34375 0.953125 C 1.34375 1.066406 1.382812 1.144531 1.46875 1.1875 C 1.550781 1.226562 1.644531 1.242188 1.75 1.234375 C 1.863281 1.222656 1.960938 1.1875 2.046875 1.125 C 2.128906 1.070312 2.171875 1 2.171875 0.90625 L 2.171875 -3.515625 L 3.109375 -3.515625 C 3.222656 -3.515625 3.296875 -3.5625 3.328125 -3.65625 C 3.367188 -3.75 3.316406 -3.851562 3.171875 -3.96875 Z M 3.125 -0.34375 L 3.125 -2.40625 C 3.125 -2.457031 3.140625 -2.503906 3.171875 -2.546875 C 3.210938 -2.597656 3.242188 -2.644531 3.265625 -2.6875 C 3.285156 -2.738281 3.28125 -2.78125 3.25 -2.8125 C 3.226562 -2.851562 3.160156 -2.894531 3.046875 -2.9375 C 2.992188 -2.945312 2.921875 -2.957031 2.828125 -2.96875 C 2.742188 -2.988281 2.660156 -3.003906 2.578125 -3.015625 C 2.503906 -3.023438 2.453125 -3.03125 2.421875 -3.03125 L 2.421875 -0.1875 C 2.421875 -0.09375 2.457031 -0.03125 2.53125 0 C 2.601562 0.0390625 2.679688 0.0507812 2.765625 0.03125 C 2.859375 0.0195312 2.941406 -0.015625 3.015625 -0.078125 C 3.085938 -0.140625 3.125 -0.226562 3.125 -0.34375 Z M 6.609375 0.953125 L 6.609375 -0.875 C 6.609375 -0.90625 6.628906 -0.929688 6.671875 -0.953125 C 6.710938 -0.984375 6.75 -1.019531 6.78125 -1.0625 C 6.8125 -1.101562 6.8125 -1.148438 6.78125 -1.203125 C 6.75 -1.265625 6.660156 -1.34375 6.515625 -1.4375 C 6.441406 -1.476562 6.351562 -1.523438 6.25 -1.578125 C 6.15625 -1.640625 6.066406 -1.675781 5.984375 -1.6875 C 5.898438 -1.707031 5.835938 -1.6875 5.796875 -1.625 L 5.671875 -1.375 L 4.234375 -1.375 C 4.222656 -1.375 4.179688 -1.382812 4.109375 -1.40625 C 4.035156 -1.425781 3.945312 -1.445312 3.84375 -1.46875 C 3.75 -1.5 3.648438 -1.523438 3.546875 -1.546875 C 3.453125 -1.578125 3.378906 -1.59375 3.328125 -1.59375 L 3.328125 1.015625 C 3.328125 1.097656 3.375 1.15625 3.46875 1.1875 C 3.5625 1.21875 3.664062 1.226562 3.78125 1.21875 C 3.894531 1.207031 4 1.179688 4.09375 1.140625 C 4.1875 1.109375 4.234375 1.066406 4.234375 1.015625 L 4.234375 0.9375 L 5.703125 0.9375 L 5.703125 1.015625 C 5.703125 1.078125 5.75 1.117188 5.84375 1.140625 C 5.9375 1.160156 6.039062 1.164062 6.15625 1.15625 C 6.269531 1.144531 6.375 1.125 6.46875 1.09375 C 6.5625 1.0625 6.609375 1.015625 6.609375 0.953125 Z M 5.375 -2.484375 L 4.609375 -2.484375 L 4.609375 -3.609375 L 5.375 -3.609375 Z M 5.703125 -0.375 L 5.375 -0.375 L 5.375 -1.078125 L 5.703125 -1.078125 Z M 4.5625 -0.375 L 4.234375 -0.375 L 4.234375 -1.078125 L 4.5625 -1.078125 Z M 5.703125 0.625 L 5.375 0.625 L 5.375 -0.0625 L 5.703125 -0.0625 Z M 4.5625 0.625 L 4.234375 0.625 L 4.234375 -0.0625 L 4.5625 -0.0625 Z M 4.5625 0.625 "/></g></g></g><g fill="#ffffff" fill-opacity="1"><g transform="translate(28.972513, 22.21847)"><g><path d="M 7 -4.953125 L 7.21875 -4.96875 L 9.265625 -5.15625 C 10.578125 -5.269531 11.5625 -5.351562 12.21875 -5.40625 C 13.320312 -5.476562 14.175781 -5.503906 14.78125 -5.484375 C 15.019531 -5.484375 15.265625 -5.472656 15.515625 -5.453125 C 15.648438 -5.429688 15.835938 -5.410156 16.078125 -5.390625 C 16.390625 -5.335938 16.601562 -5.316406 16.71875 -5.328125 C 16.90625 -5.347656 17.082031 -5.429688 17.25 -5.578125 C 17.550781 -5.878906 17.613281 -6.195312 17.4375 -6.53125 C 17.238281 -6.9375 16.75 -7.1875 15.96875 -7.28125 C 15.664062 -7.320312 15.40625 -7.332031 15.1875 -7.3125 C 15.0625 -7.28125 14.890625 -7.222656 14.671875 -7.140625 C 14.378906 -7.035156 14.128906 -6.957031 13.921875 -6.90625 C 13.554688 -6.820312 13.113281 -6.757812 12.59375 -6.71875 C 12.644531 -7.238281 12.585938 -7.632812 12.421875 -7.90625 C 12.328125 -8.09375 12.09375 -8.332031 11.71875 -8.625 L 12.40625 -8.640625 C 13.175781 -8.640625 13.65625 -8.691406 13.84375 -8.796875 C 14.144531 -8.941406 14.203125 -9.28125 14.015625 -9.8125 C 14.046875 -9.976562 14.085938 -10.125 14.140625 -10.25 C 14.160156 -10.320312 14.195312 -10.421875 14.25 -10.546875 C 14.363281 -10.804688 14.4375 -11.054688 14.46875 -11.296875 C 14.5 -11.617188 14.503906 -12.21875 14.484375 -13.09375 L 14.53125 -13.390625 C 14.613281 -13.703125 14.644531 -13.929688 14.625 -14.078125 C 14.59375 -14.347656 14.457031 -14.601562 14.21875 -14.84375 C 13.820312 -15.175781 13.429688 -15.410156 13.046875 -15.546875 C 12.648438 -15.671875 12.347656 -15.660156 12.140625 -15.515625 C 11.953125 -15.390625 11.882812 -15.21875 11.9375 -15 C 11.957031 -14.875 12.066406 -14.671875 12.265625 -14.390625 C 12.390625 -14.179688 12.472656 -14.03125 12.515625 -13.9375 C 12.597656 -13.757812 12.648438 -13.59375 12.671875 -13.4375 L 12.75 -12.484375 C 12.78125 -12.054688 12.804688 -11.722656 12.828125 -11.484375 C 12.835938 -11.097656 12.835938 -10.6875 12.828125 -10.25 C 12.367188 -10.09375 11.828125 -9.960938 11.203125 -9.859375 C 10.535156 -9.753906 9.925781 -9.703125 9.375 -9.703125 C 9.34375 -9.867188 9.316406 -10.101562 9.296875 -10.40625 L 9.296875 -11.1875 L 9.328125 -11.640625 C 9.535156 -11.628906 9.882812 -11.632812 10.375 -11.65625 C 10.863281 -11.695312 11.25 -11.738281 11.53125 -11.78125 C 11.9375 -11.9375 12.078125 -12.203125 11.953125 -12.578125 C 11.835938 -12.941406 11.578125 -13.1875 11.171875 -13.3125 C 10.898438 -13.351562 10.671875 -13.351562 10.484375 -13.3125 C 10.390625 -13.289062 10.253906 -13.238281 10.078125 -13.15625 C 9.921875 -13.082031 9.800781 -13.035156 9.71875 -13.015625 C 9.550781 -12.972656 9.375 -12.953125 9.1875 -12.953125 C 9.050781 -13.398438 8.625 -13.769531 7.90625 -14.0625 C 7.207031 -14.363281 6.675781 -14.394531 6.3125 -14.15625 C 6.144531 -14.007812 6.117188 -13.832031 6.234375 -13.625 C 6.296875 -13.5 6.457031 -13.304688 6.71875 -13.046875 C 6.875 -12.898438 6.984375 -12.785156 7.046875 -12.703125 C 7.140625 -12.578125 7.210938 -12.46875 7.265625 -12.375 C 7.390625 -12.039062 7.503906 -11.65625 7.609375 -11.21875 C 7.660156 -10.96875 7.726562 -10.554688 7.8125 -9.984375 L 8.015625 -8.796875 C 8.078125 -8.296875 8.234375 -8.050781 8.484375 -8.0625 C 8.710938 -8.082031 9 -8.304688 9.34375 -8.734375 C 9.476562 -8.671875 9.617188 -8.628906 9.765625 -8.609375 C 9.859375 -8.597656 10 -8.582031 10.1875 -8.5625 L 10.28125 -8.546875 C 10.164062 -8.378906 10.144531 -8.195312 10.21875 -8 C 10.269531 -7.882812 10.378906 -7.707031 10.546875 -7.46875 C 10.691406 -7.269531 10.789062 -7.117188 10.84375 -7.015625 C 10.914062 -6.847656 10.9375 -6.6875 10.90625 -6.53125 C 9.894531 -6.414062 8.609375 -6.359375 7.046875 -6.359375 C 6.160156 -6.378906 5 -6.410156 3.5625 -6.453125 L 2.90625 -6.484375 C 2.632812 -6.503906 2.425781 -6.476562 2.28125 -6.40625 C 2.113281 -6.3125 2.035156 -6.195312 2.046875 -6.0625 C 2.066406 -5.882812 2.207031 -5.695312 2.46875 -5.5 C 2.757812 -5.257812 3.1875 -5 3.75 -4.71875 C 4.125 -4.570312 4.445312 -4.5 4.71875 -4.5 C 4.914062 -4.507812 5.203125 -4.566406 5.578125 -4.671875 C 5.816406 -4.734375 6.015625 -4.785156 6.171875 -4.828125 C 6.441406 -4.890625 6.71875 -4.929688 7 -4.953125 Z M 11.265625 -4.28125 C 12.179688 -4.28125 12.957031 -3.953125 13.59375 -3.296875 C 14.1875 -2.679688 14.484375 -2.003906 14.484375 -1.265625 C 14.484375 -0.441406 14.207031 0.25 13.65625 0.8125 C 13.0625 1.445312 12.265625 1.765625 11.265625 1.765625 C 10.441406 1.765625 9.679688 1.445312 8.984375 0.8125 C 8.273438 0.1875 7.921875 -0.503906 7.921875 -1.265625 C 7.921875 -2.085938 8.1875 -2.773438 8.71875 -3.328125 C 9.332031 -3.960938 10.179688 -4.28125 11.265625 -4.28125 Z M 11.328125 -2.71875 C 10.765625 -2.71875 10.285156 -2.570312 9.890625 -2.28125 C 9.523438 -2 9.34375 -1.675781 9.34375 -1.3125 C 9.34375 -0.945312 9.523438 -0.632812 9.890625 -0.375 C 10.273438 -0.0820312 10.753906 0.0625 11.328125 0.0625 C 11.929688 0.0625 12.375 -0.0820312 12.65625 -0.375 C 12.882812 -0.601562 13 -0.914062 13 -1.3125 C 13 -1.65625 12.863281 -1.957031 12.59375 -2.21875 C 12.28125 -2.550781 11.859375 -2.71875 11.328125 -2.71875 Z M 11.328125 -2.71875 "/></g></g></g><g fill="#ffffff" fill-opacity="1"><g transform="translate(47.588329, 22.21847)"><g><path d="M 13.015625 -13.625 L 13.03125 -13.53125 C 13.03125 -12.257812 13.0625 -11.0625 13.125 -9.9375 C 13.164062 -9.3125 13.226562 -8.5625 13.3125 -7.6875 C 13.363281 -7.070312 13.390625 -6.65625 13.390625 -6.4375 C 13.398438 -6.125 13.367188 -5.875 13.296875 -5.6875 C 12.460938 -5.976562 12.035156 -5.96875 12.015625 -5.65625 C 12.003906 -5.457031 12.195312 -5.007812 12.59375 -4.3125 L 12.859375 -3.859375 C 12.835938 -3.285156 12.832031 -2.738281 12.84375 -2.21875 C 12.851562 -1.914062 12.878906 -1.539062 12.921875 -1.09375 C 12.929688 -0.8125 12.941406 -0.609375 12.953125 -0.484375 L 12.953125 0.078125 C 12.617188 0.285156 12.101562 0.453125 11.40625 0.578125 C 10.726562 0.703125 10.101562 0.75 9.53125 0.71875 C 9.5 0.351562 9.476562 -0.00390625 9.46875 -0.359375 C 9.46875 -0.773438 9.472656 -1.265625 9.484375 -1.828125 C 9.648438 -1.816406 9.800781 -1.796875 9.9375 -1.765625 C 10.03125 -1.753906 10.140625 -1.738281 10.265625 -1.71875 C 10.503906 -1.65625 10.710938 -1.632812 10.890625 -1.65625 C 11.140625 -1.675781 11.546875 -1.773438 12.109375 -1.953125 C 12.367188 -2.054688 12.519531 -2.195312 12.5625 -2.375 C 12.582031 -2.519531 12.523438 -2.6875 12.390625 -2.875 C 12.265625 -3.050781 12.101562 -3.195312 11.90625 -3.3125 C 11.6875 -3.425781 11.492188 -3.460938 11.328125 -3.421875 C 11.171875 -3.410156 11.023438 -3.375 10.890625 -3.3125 C 10.796875 -3.269531 10.675781 -3.207031 10.53125 -3.125 C 10.351562 -3.007812 10.207031 -2.925781 10.09375 -2.875 C 9.894531 -2.800781 9.675781 -2.75 9.4375 -2.71875 C 9.5 -3.300781 9.160156 -3.828125 8.421875 -4.296875 C 7.703125 -4.753906 7.078125 -4.878906 6.546875 -4.671875 C 6.273438 -4.554688 6.179688 -4.378906 6.265625 -4.140625 C 6.316406 -4.003906 6.488281 -3.773438 6.78125 -3.453125 C 6.96875 -3.234375 7.097656 -3.066406 7.171875 -2.953125 C 7.304688 -2.773438 7.394531 -2.613281 7.4375 -2.46875 C 7.507812 -1.976562 7.578125 -1.503906 7.640625 -1.046875 C 7.679688 -0.773438 7.726562 -0.414062 7.78125 0.03125 L 7.953125 1.4375 C 8.085938 2.132812 8.3125 2.460938 8.625 2.421875 C 8.875 2.390625 9.160156 2.09375 9.484375 1.53125 C 9.648438 1.550781 9.800781 1.585938 9.9375 1.640625 C 10.03125 1.660156 10.140625 1.695312 10.265625 1.75 C 10.546875 1.863281 10.804688 1.925781 11.046875 1.9375 C 11.410156 1.96875 12.019531 1.929688 12.875 1.828125 C 13.519531 1.910156 14 1.847656 14.3125 1.640625 C 14.726562 1.378906 14.640625 0.914062 14.046875 0.25 L 14.0625 0.1875 C 14.300781 -0.257812 14.46875 -0.664062 14.5625 -1.03125 C 14.707031 -1.644531 14.769531 -2.4375 14.75 -3.40625 L 14.8125 -3.875 C 14.90625 -4.269531 14.898438 -4.546875 14.796875 -4.703125 C 14.660156 -4.921875 14.238281 -5.226562 13.53125 -5.625 C 13.582031 -5.832031 13.664062 -6.019531 13.78125 -6.1875 C 13.851562 -6.300781 13.96875 -6.453125 14.125 -6.640625 C 14.445312 -7.085938 14.675781 -7.484375 14.8125 -7.828125 C 15.039062 -8.441406 15.160156 -9.253906 15.171875 -10.265625 L 15.171875 -13.421875 C 15.171875 -13.523438 15.175781 -13.632812 15.1875 -13.75 C 15.1875 -13.8125 15.203125 -13.898438 15.234375 -14.015625 C 15.273438 -14.234375 15.285156 -14.394531 15.265625 -14.5 C 15.234375 -14.664062 15.125 -14.820312 14.9375 -14.96875 C 14.28125 -15.4375 13.671875 -15.769531 13.109375 -15.96875 C 12.628906 -16.144531 12.21875 -16.226562 11.875 -16.21875 C 11.59375 -16.1875 11.40625 -16.101562 11.3125 -15.96875 C 11.226562 -15.84375 11.273438 -15.710938 11.453125 -15.578125 C 11.898438 -15.179688 12.265625 -14.820312 12.546875 -14.5 C 12.828125 -14.144531 12.984375 -13.851562 13.015625 -13.625 Z M 6.53125 -11.765625 L 6.625 -11.671875 C 6.820312 -11.492188 6.773438 -11.128906 6.484375 -10.578125 C 6.210938 -10.078125 5.800781 -9.5 5.25 -8.84375 C 4.707031 -8.25 4.175781 -7.722656 3.65625 -7.265625 C 3.101562 -6.785156 2.707031 -6.535156 2.46875 -6.515625 C 1.738281 -6.535156 1.367188 -6.457031 1.359375 -6.28125 C 1.347656 -6.125 1.710938 -6.085938 2.453125 -6.171875 C 3.242188 -6.296875 4.070312 -6.585938 4.9375 -7.046875 C 5.851562 -7.535156 6.710938 -8.160156 7.515625 -8.921875 C 7.753906 -8.773438 7.992188 -8.5625 8.234375 -8.28125 C 8.378906 -8.125 8.582031 -7.875 8.84375 -7.53125 C 9.070312 -7.238281 9.242188 -7.03125 9.359375 -6.90625 C 9.546875 -6.695312 9.726562 -6.539062 9.90625 -6.4375 C 10.039062 -6.351562 10.1875 -6.34375 10.34375 -6.40625 C 10.5 -6.46875 10.632812 -6.578125 10.75 -6.734375 C 10.863281 -6.921875 10.925781 -7.144531 10.9375 -7.40625 C 10.945312 -7.675781 10.898438 -7.960938 10.796875 -8.265625 C 10.640625 -8.585938 10.457031 -8.8125 10.25 -8.9375 C 10.09375 -9.03125 9.828125 -9.113281 9.453125 -9.1875 C 9.203125 -9.25 9.007812 -9.300781 8.875 -9.34375 C 8.601562 -9.414062 8.359375 -9.503906 8.140625 -9.609375 L 8.4375 -9.984375 C 8.726562 -10.316406 8.847656 -10.578125 8.796875 -10.765625 C 8.703125 -11.054688 8.269531 -11.46875 7.5 -12 C 7.875 -12.03125 8.226562 -12.039062 8.5625 -12.03125 C 8.769531 -12.03125 9.007812 -12.019531 9.28125 -12 C 9.570312 -11.957031 9.773438 -11.945312 9.890625 -11.96875 C 10.066406 -12 10.238281 -12.078125 10.40625 -12.203125 C 10.695312 -12.492188 10.726562 -12.828125 10.5 -13.203125 C 10.238281 -13.617188 9.726562 -13.835938 8.96875 -13.859375 C 8.789062 -13.859375 8.640625 -13.835938 8.515625 -13.796875 C 8.421875 -13.765625 8.304688 -13.703125 8.171875 -13.609375 C 7.816406 -13.398438 7.421875 -13.25 6.984375 -13.15625 C 6.222656 -13.019531 5.09375 -12.976562 3.59375 -13.03125 C 3.207031 -13.082031 2.96875 -12.988281 2.875 -12.75 C 2.78125 -12.507812 2.960938 -12.238281 3.421875 -11.9375 C 4.023438 -11.59375 4.46875 -11.40625 4.75 -11.375 C 4.9375 -11.332031 5.203125 -11.375 5.546875 -11.5 C 5.710938 -11.5625 5.851562 -11.609375 5.96875 -11.640625 C 6.144531 -11.691406 6.332031 -11.734375 6.53125 -11.765625 Z M 6.53125 -11.765625 "/></g></g></g></svg>