<svg id="company01" xmlns="http://www.w3.org/2000/svg" width="48" height="48" viewBox="0 0 48 48">
  <g id="그룹_98" data-name="그룹 98">
    <path id="패스_27" data-name="패스 27" d="M0,0H48V48H0Z" fill="none"/>
  </g>
  <g id="그룹_100" data-name="그룹 100" transform="translate(2 6)">
    <path id="패스_28" data-name="패스 28" d="M12.5,85v26h28V85l-14-10Z" transform="translate(-12.5 -69)"/>
    <path id="패스_29" data-name="패스 29" d="M125,37.5v3.94l14,10V53.5h4v4h-4v4h4v4h-4v8h12v-36Zm18,12h-4v-4h4Z" transform="translate(-107 -37.5)"/>
    <g id="money" transform="translate(2.5 15)">
      <path id="패스_30" data-name="패스 30" d="M0,0H24V24H0Z" fill="none"/>
      <path id="패스_31" data-name="패스 31" d="M11.8,10.9c-2.27-.59-3-1.2-3-2.15,0-1.09,1.01-1.85,2.7-1.85,1.42,0,2.13.54,2.39,1.4a.925.925,0,0,0,.87.7h.3a.948.948,0,0,0,.9-1.27A4,4,0,0,0,13,5.19V4.5a1.5,1.5,0,0,0-3,0v.66c-1.94.42-3.5,1.68-3.5,3.61,0,2.31,1.91,3.46,4.7,4.13,2.5.6,3,1.48,3,2.41,0,.69-.49,1.79-2.7,1.79-1.65,0-2.5-.59-2.83-1.43a.984.984,0,0,0-.9-.67H7.49a.954.954,0,0,0-.89,1.3A4.5,4.5,0,0,0,10,18.83v.67a1.5,1.5,0,0,0,3,0v-.65c1.95-.37,3.5-1.5,3.5-3.55,0-2.84-2.43-3.81-4.7-4.4Z" fill="#fff"/>
    </g>
  </g>
</svg>
