<?xml version="1.0" encoding="UTF-8"?>
<svg id="Layer_2" xmlns="http://www.w3.org/2000/svg" xmlns:xlink="http://www.w3.org/1999/xlink" viewBox="0 0 34 36">
  <defs>
    <style>
      .cls-1 {
        fill: none;
      }

      .cls-2 {
        clip-path: url(#clippath-1);
      }

      .cls-3 {
        fill: #fff;
      }

      .cls-4 {
        clip-path: url(#clippath);
      }
    </style>
    <clipPath id="clippath">
      <rect class="cls-1" y="14.67" width="34" height="21.33"/>
    </clipPath>
    <clipPath id="clippath-1">
      <rect class="cls-1" width="34" height="14.67"/>
    </clipPath>
  </defs>
  <g id="Layer_1-2" data-name="Layer_1">
    <g class="cls-4">
      <path class="cls-3" d="M31.5,32.63c0,.31-.11.58-.33.8s-.48.33-.8.33H3.38c-.31,0-.58-.11-.8-.33-.22-.22-.33-.48-.33-.8V15.75H0v16.88c0,.45.08.88.26,1.29s.42.78.73,1.09c.32.32.68.56,1.09.73s.84.26,1.29.26h27c.45,0,.88-.08,1.29-.26s.78-.42,1.09-.73.56-.68.73-1.09.26-.84.26-1.29V15.75h-2.25v16.88Z"/>
    </g>
    <g class="cls-2">
      <path class="cls-3" d="M32.63,3.38h-6.75V1.13c0-.31-.11-.58-.33-.8-.22-.22-.48-.33-.8-.33s-.58.11-.8.33c-.22.22-.33.48-.33.8v2.25h-13.5V1.13c0-.31-.11-.58-.33-.8-.22-.22-.48-.33-.8-.33s-.58.11-.8.33c-.22.22-.33.48-.33.8v2.25H1.13c-.31,0-.58.11-.8.33-.22.22-.33.48-.33.8v7.88c0,.31.11.58.33.8.22.22.48.33.8.33h31.5c.31,0,.58-.11.8-.33s.33-.48.33-.8v-7.88c0-.31-.11-.58-.33-.8-.22-.22-.48-.33-.8-.33ZM31.5,11.25H2.25v-5.63h5.63v1.13c0,.31.11.58.33.8.22.22.48.33.8.33s.58-.11.8-.33c.22-.22.33-.48.33-.8v-1.13h13.5v1.13c0,.31.11.58.33.8.22.22.48.33.8.33s.58-.11.8-.33c.22-.22.33-.48.33-.8v-1.13h5.63v5.63Z"/>
    </g>
    <path class="cls-3" d="M15.14,28.13c.32,0,.59-.13.81-.36l7.36-7.88c.18-.23.27-.49.24-.79-.02-.3-.14-.55-.35-.74-.22-.2-.47-.3-.77-.3s-.55.1-.77.3l-6.56,7.02-2.5-2.54c-.1-.12-.22-.21-.36-.29-.14-.07-.29-.1-.45-.11-.16,0-.31.02-.45.08-.15.05-.28.14-.39.24-.11.11-.2.24-.26.39-.06.15-.08.3-.08.45,0,.16.04.31.11.45.07.14.16.26.28.36l3.38,3.38c.2.21.46.32.75.34Z"/>
  </g>
</svg>