<?xml version="1.0" encoding="UTF-8"?>
<svg id="Layer_2" xmlns="http://www.w3.org/2000/svg" viewBox="0 0 28.06 28.06">
  <defs>
    <style>
      .cls-1 {
        fill: #5f6368;
        fill-rule: evenodd;
      }
    </style>
  </defs>
  <g id="Layer_1-2" data-name="Layer_1">
    <path class="cls-1" d="M17.37,14.03l10-10c.92-.92.93-2.42,0-3.34-.92-.92-2.42-.92-3.34,0l-10,10.01L4.03.69C3.11-.23,1.61-.23.69.69c-.92.92-.92,2.42,0,3.34l10,10L.69,24.03c-.92.92-.93,2.42,0,3.34.92.92,2.42.92,3.34,0l10.01-10,10,10c.92.92,2.42.92,3.34,0,.92-.92.92-2.42,0-3.34l-10-10.01Z"/>
  </g>
</svg>