<svg xmlns="http://www.w3.org/2000/svg" width="34.796" height="36.688" viewBox="0 0 34.796 36.688">
  <path id="finance-img04" d="M31.776,20.635A8.516,8.516,0,1,0,30.282,33.88l5.885,5.809,2.63-2.63L32.95,31.174a8.45,8.45,0,0,0-1.173-10.539M29.109,30a4.73,4.73,0,1,1,0-6.7,4.745,4.745,0,0,1,0,6.7M17.056,35.356a12.35,12.35,0,0,1-2.8-4.39C8.3,29.963,4,27.144,4,23.813V29.49c0,4.182,6.774,7.569,15.137,7.569h0a12.03,12.03,0,0,1-2.081-1.7M4,14.353v5.676c0,3.179,3.917,5.9,9.461,7v-.378a12.371,12.371,0,0,1,1.1-5.09C8.428,20.6,4,17.74,4,14.353M19.137,3C10.774,3,4,6.387,4,10.569c0,3.784,5.676,6.963,12.961,7.569h.095a12.062,12.062,0,0,1,8.7-3.784,12.269,12.269,0,0,1,5,1.06,6.083,6.083,0,0,0,3.519-4.844C34.274,6.387,27.5,3,19.137,3Z" transform="translate(-4 -3)" opacity="0.8"/>
</svg>
