<svg xmlns="http://www.w3.org/2000/svg" width="55.977" height="40.71" viewBox="0 0 55.977 40.71">
  <path id="finance-img10" d="M40-761.834v-7.633a4.871,4.871,0,0,1,1.495-3.626,4.955,4.955,0,0,1,3.594-1.463h8.333a4.9,4.9,0,0,1,2.417.636,5.125,5.125,0,0,1,1.845,1.717,13.122,13.122,0,0,0,4.548,3.88,12.348,12.348,0,0,0,5.757,1.4,12.478,12.478,0,0,0,5.82-1.4,12.549,12.549,0,0,0,4.484-3.88,6.479,6.479,0,0,1,1.94-1.717,4.614,4.614,0,0,1,2.322-.636h8.333a4.925,4.925,0,0,1,3.626,1.463,4.925,4.925,0,0,1,1.463,3.626v7.633a2.462,2.462,0,0,1-.732,1.813,2.462,2.462,0,0,1-1.813.732H80.71a2.462,2.462,0,0,1-1.813-.732,2.462,2.462,0,0,1-.732-1.813v-3.244a17.33,17.33,0,0,1-4.8,2.417,17.479,17.479,0,0,1-5.375.827,16.969,16.969,0,0,1-5.343-.859,17.9,17.9,0,0,1-4.834-2.449v3.308a2.462,2.462,0,0,1-.732,1.813,2.462,2.462,0,0,1-1.813.732H42.544a2.462,2.462,0,0,1-1.813-.732A2.462,2.462,0,0,1,40-761.834Zm27.988-7.633a9.871,9.871,0,0,1-4.58-1.113,10.371,10.371,0,0,1-3.626-3.085,8.053,8.053,0,0,0-2.7-2.513,7.02,7.02,0,0,0-3.53-.922q1.4-2.353,5.916-3.721a29.457,29.457,0,0,1,8.524-1.368,29.457,29.457,0,0,1,8.524,1.368q4.516,1.368,5.916,3.721a7.075,7.075,0,0,0-3.5.922,7.957,7.957,0,0,0-2.735,2.513,9.33,9.33,0,0,1-3.562,3.117A10.242,10.242,0,0,1,67.988-769.467ZM47.633-777.1a7.362,7.362,0,0,1-5.407-2.226A7.361,7.361,0,0,1,40-784.734a7.331,7.331,0,0,1,2.226-5.439,7.415,7.415,0,0,1,5.407-2.194,7.385,7.385,0,0,1,5.439,2.194,7.385,7.385,0,0,1,2.195,5.439,7.416,7.416,0,0,1-2.195,5.407A7.332,7.332,0,0,1,47.633-777.1Zm40.71,0a7.362,7.362,0,0,1-5.407-2.226,7.361,7.361,0,0,1-2.226-5.407,7.331,7.331,0,0,1,2.226-5.439,7.415,7.415,0,0,1,5.407-2.194,7.385,7.385,0,0,1,5.439,2.194,7.385,7.385,0,0,1,2.195,5.439,7.416,7.416,0,0,1-2.195,5.407A7.332,7.332,0,0,1,88.343-777.1Zm-20.355-7.633a7.361,7.361,0,0,1-5.407-2.226,7.361,7.361,0,0,1-2.226-5.407,7.332,7.332,0,0,1,2.226-5.439A7.416,7.416,0,0,1,67.988-800a7.386,7.386,0,0,1,5.439,2.194,7.386,7.386,0,0,1,2.195,5.439,7.415,7.415,0,0,1-2.195,5.407A7.332,7.332,0,0,1,67.988-784.734Z" transform="translate(-40 800)" opacity="0.7"/>
</svg>
