<svg xmlns="http://www.w3.org/2000/svg" width="35.922" height="36.402" viewBox="0 0 35.922 36.402">
  <g id="finance-img09" transform="translate(-618 -3712)" opacity="0.7">
    <path id="빼기_1" data-name="빼기 1" d="M-344.422-142H-358v-23l14-9,14,9v.313a9.139,9.139,0,0,0-2-.215,8.422,8.422,0,0,0-6.155,2.546A8.422,8.422,0,0,0-340.7-156.2v.8l.466.652,3.377,4.729h-2.583a4.882,4.882,0,0,0-3.52,1.461,4.88,4.88,0,0,0-1.461,3.519V-142Z" transform="translate(976 3886)"/>
    <path id="approval_24dp_5F6368_FILL1_wght400_GRAD0_opsz24" d="M160-855.2v-7.441a2.389,2.389,0,0,1,.729-1.752,2.389,2.389,0,0,1,1.752-.729h14.883a2.388,2.388,0,0,1,1.752.729,2.389,2.389,0,0,1,.729,1.752v7.441Zm2.48-4.961h14.883v-2.48H162.48Zm7.441-4.961-6.2-8.682a5.976,5.976,0,0,1,1.814-4.387A5.976,5.976,0,0,1,169.922-880a5.976,5.976,0,0,1,4.387,1.814,5.976,5.976,0,0,1,1.814,4.387Z" transform="translate(474.078 4603.598)"/>
  </g>
</svg>
