<svg xmlns="http://www.w3.org/2000/svg" width="55.727" height="54.632" viewBox="0 0 55.727 54.632">
  <g id="finance-img07" transform="translate(-611.689 -3401.602)" opacity="0.7">
    <path id="search_insights_24dp_5F6368_FILL1_wght400_GRAD0_opsz24" d="M105.118-836.043a18.167,18.167,0,0,0,13.344-5.495,18.167,18.167,0,0,0,5.495-13.344,18.167,18.167,0,0,0-5.495-13.344,18.167,18.167,0,0,0-13.344-5.495,18.167,18.167,0,0,0-13.344,5.495A18.281,18.281,0,0,0,86.288-855.5s-.009.309-.009.623a18.167,18.167,0,0,0,5.495,13.344A18.167,18.167,0,0,0,105.118-836.043Zm26.213,10.675-10.75-9.655a24.879,24.879,0,0,1-7.143,3.885,25,25,0,0,1-8.32,1.374,24.243,24.243,0,0,1-17.818-7.3A24.243,24.243,0,0,1,80-854.882,24.243,24.243,0,0,1,87.3-872.7a24.243,24.243,0,0,1,17.818-7.3,24.243,24.243,0,0,1,17.818,7.3,24.243,24.243,0,0,1,7.3,17.818,25,25,0,0,1-1.374,8.32,24.887,24.887,0,0,1-3.885,7.143l10.75,9.655Z" transform="translate(531.689 4281.602)"/>
    <path id="currency-usd" d="M7,21.708h3.118c0,1.684,2.136,3.118,4.677,3.118s4.677-1.434,4.677-3.118c0-1.715-1.621-2.339-5.051-3.165C11.116,17.717,7,16.688,7,12.354,7,9.564,9.292,7.194,12.457,6.4V3h4.677V6.4c3.165.8,5.457,3.165,5.457,5.955H19.472c0-1.684-2.136-3.118-4.677-3.118s-4.677,1.434-4.677,3.118c0,1.715,1.621,2.339,5.051,3.165,3.305.826,7.421,1.855,7.421,6.189,0,2.791-2.292,5.16-5.457,5.955v3.4H12.457v-3.4C9.292,26.869,7,24.5,7,21.708Z" transform="translate(622.559 3409.803)"/>
  </g>
</svg>
