<svg xmlns="http://www.w3.org/2000/svg" width="50.704" height="50.704" viewBox="0 0 50.704 50.704">
  <path id="finance-img08" d="M82.535-829.3v-1.458a5.012,5.012,0,0,1,.824-2.789,5.053,5.053,0,0,1,2.282-1.9,19.171,19.171,0,0,1,3.391-1.077,17.053,17.053,0,0,1,3.644-.38,17.052,17.052,0,0,1,3.644.38,19.171,19.171,0,0,1,3.391,1.077,5.053,5.053,0,0,1,2.282,1.9,5.012,5.012,0,0,1,.824,2.789v1.458Zm25.352,0v-1.458a5.012,5.012,0,0,1,.824-2.789,5.053,5.053,0,0,1,2.282-1.9,19.169,19.169,0,0,1,3.391-1.077,17.052,17.052,0,0,1,3.644-.38,17.053,17.053,0,0,1,3.644.38,19.171,19.171,0,0,1,3.391,1.077,5.053,5.053,0,0,1,2.282,1.9,5.012,5.012,0,0,1,.824,2.789v1.458ZM92.676-839.437a4.881,4.881,0,0,1-3.581-1.49,4.882,4.882,0,0,1-1.489-3.581,4.883,4.883,0,0,1,1.489-3.581,4.883,4.883,0,0,1,3.581-1.489,4.883,4.883,0,0,1,3.581,1.489,4.883,4.883,0,0,1,1.489,3.581,4.882,4.882,0,0,1-1.489,3.581A4.881,4.881,0,0,1,92.676-839.437Zm25.352,0a4.881,4.881,0,0,1-3.581-1.49,4.882,4.882,0,0,1-1.489-3.581,4.883,4.883,0,0,1,1.489-3.581,4.883,4.883,0,0,1,3.581-1.489,4.883,4.883,0,0,1,3.581,1.489,4.883,4.883,0,0,1,1.489,3.581,4.882,4.882,0,0,1-1.489,3.581A4.881,4.881,0,0,1,118.028-839.437Zm-12.676-5.07-7.606-7.606,2.662-2.662,3.042,2.979v-5.387h3.8v5.387l3.042-2.979,2.662,2.662ZM80-859.718v-1.458a5.011,5.011,0,0,1,.824-2.788,5.051,5.051,0,0,1,2.282-1.9,19.16,19.16,0,0,1,3.391-1.077,17.052,17.052,0,0,1,3.644-.38,16.447,16.447,0,0,1,2.5.19,20.531,20.531,0,0,1,2.377.507,8.36,8.36,0,0,0-1.711,2.472,7.114,7.114,0,0,0-.634,2.979v1.458Zm15.211,0v-1.458a5.012,5.012,0,0,1,.824-2.788,5.052,5.052,0,0,1,2.282-1.9,19.16,19.16,0,0,1,3.391-1.077,17.052,17.052,0,0,1,3.644-.38,17.052,17.052,0,0,1,3.644.38,19.161,19.161,0,0,1,3.391,1.077,5.052,5.052,0,0,1,2.282,1.9,5.012,5.012,0,0,1,.824,2.788v1.458Zm22.817,0v-1.458a7.114,7.114,0,0,0-.634-2.979,8.36,8.36,0,0,0-1.711-2.472,20.53,20.53,0,0,1,2.377-.507,16.447,16.447,0,0,1,2.5-.19,17.052,17.052,0,0,1,3.644.38,19.159,19.159,0,0,1,3.391,1.077,5.052,5.052,0,0,1,2.282,1.9,5.012,5.012,0,0,1,.824,2.788v1.458ZM90.141-869.859a4.883,4.883,0,0,1-3.581-1.489,4.883,4.883,0,0,1-1.489-3.581,4.882,4.882,0,0,1,1.489-3.581A4.883,4.883,0,0,1,90.141-880a4.883,4.883,0,0,1,3.581,1.49,4.882,4.882,0,0,1,1.489,3.581,4.883,4.883,0,0,1-1.489,3.581A4.883,4.883,0,0,1,90.141-869.859Zm15.211,0a4.883,4.883,0,0,1-3.581-1.489,4.883,4.883,0,0,1-1.489-3.581,4.882,4.882,0,0,1,1.489-3.581,4.883,4.883,0,0,1,3.581-1.49,4.883,4.883,0,0,1,3.581,1.49,4.882,4.882,0,0,1,1.489,3.581,4.883,4.883,0,0,1-1.489,3.581A4.883,4.883,0,0,1,105.352-869.859Zm15.211,0a4.883,4.883,0,0,1-3.581-1.489,4.883,4.883,0,0,1-1.489-3.581,4.882,4.882,0,0,1,1.489-3.581,4.883,4.883,0,0,1,3.581-1.49,4.883,4.883,0,0,1,3.581,1.49,4.882,4.882,0,0,1,1.489,3.581,4.883,4.883,0,0,1-1.489,3.581A4.883,4.883,0,0,1,120.563-869.859Z" transform="translate(-80 880)" opacity="0.7"/>
</svg>
