<svg xmlns="http://www.w3.org/2000/svg" width="61.069" height="54.843" viewBox="0 0 61.069 54.843">
  <g id="finance-img01" transform="translate(-618.263 -2481.082)" opacity="0.7">
    <path id="패스_36" data-name="패스 36" d="M1765.637,2368.12h-5.993l12.6-15.383,11.938,17.271h-6.606s3.492,32.418-29.54,35.58" transform="translate(-1106.28 129.591)" fill="none" stroke="#000" stroke-width="1.5"/>
    <path id="paid_24dp_5F6368_FILL1_wght400_GRAD0_opsz24" d="M102.283-835.434a21.7,21.7,0,0,1-8.69-1.755,22.5,22.5,0,0,1-7.075-4.763,22.5,22.5,0,0,1-4.763-7.074A21.7,21.7,0,0,1,80-857.717a21.7,21.7,0,0,1,1.755-8.691,22.5,22.5,0,0,1,4.763-7.075,22.5,22.5,0,0,1,7.075-4.763,21.7,21.7,0,0,1,8.69-1.755,21.7,21.7,0,0,1,8.69,1.755,22.5,22.5,0,0,1,7.075,4.763,22.5,22.5,0,0,1,4.763,7.075,21.7,21.7,0,0,1,1.755,8.691,21.7,21.7,0,0,1-1.755,8.69,22.5,22.5,0,0,1-4.763,7.074,22.5,22.5,0,0,1-7.075,4.763A21.7,21.7,0,0,1,102.283-835.434Zm-.056-6.685a1.871,1.871,0,0,0,1.365-.585,1.87,1.87,0,0,0,.585-1.365v-.836a10.138,10.138,0,0,0,4.791-2.172,6.085,6.085,0,0,0,2.005-4.958,7.423,7.423,0,0,0-1.337-4.29q-1.337-1.95-5.348-3.4a22.292,22.292,0,0,1-4.624-1.95,2.6,2.6,0,0,1-1.281-2.284,2.783,2.783,0,0,1,1.031-2.284,4.635,4.635,0,0,1,2.98-.835,4.57,4.57,0,0,1,1.95.39,3.97,3.97,0,0,1,1.393,1.058,2.928,2.928,0,0,0,1.253.919,1.68,1.68,0,0,0,1.309-.028,1.928,1.928,0,0,0,1.142-1.142,1.538,1.538,0,0,0-.139-1.476,8.448,8.448,0,0,0-2.2-2.173,5.673,5.673,0,0,0-2.813-1v-.836a1.871,1.871,0,0,0-.585-1.365,1.87,1.87,0,0,0-1.365-.585,1.87,1.87,0,0,0-1.365.585,1.871,1.871,0,0,0-.585,1.365v.836a7.646,7.646,0,0,0-4.345,2.451,6.209,6.209,0,0,0-1.56,4.122,5.9,5.9,0,0,0,1.532,4.234,12.247,12.247,0,0,0,4.819,2.785,21.308,21.308,0,0,1,4.874,2.284,3.1,3.1,0,0,1,1.365,2.618,3.005,3.005,0,0,1-1.309,2.7,5.587,5.587,0,0,1-3.147.863,5.02,5.02,0,0,1-2.618-.7,5.456,5.456,0,0,1-1.95-2.089,2.294,2.294,0,0,0-1.17-1.058,1.952,1.952,0,0,0-1.448,0,1.942,1.942,0,0,0-1.142,1.058,1.714,1.714,0,0,0-.028,1.5,8.509,8.509,0,0,0,2.4,3.092,8.539,8.539,0,0,0,3.621,1.643v.947a1.87,1.87,0,0,0,.585,1.365A1.871,1.871,0,0,0,102.227-842.119Z" transform="translate(538.263 3363.671)"/>
  </g>
</svg>
