<svg xmlns="http://www.w3.org/2000/svg" width="43.66" height="45.293" viewBox="0 0 43.66 45.293">
  <path id="finance-img03" d="M18.453,35.435H11.609v-4.3h6.457a15.792,15.792,0,0,1,1.076-4.3H11.609v-4.3H21.982a1.881,1.881,0,0,0,.172-.215,14.055,14.055,0,0,1,9.9-4.089H11.609v-4.3H33.131v4.3H32.055a13.954,13.954,0,0,1,9.685,3.917V9.609a4.3,4.3,0,0,0-4.3-4.3h-9A6.431,6.431,0,0,0,16.3,5.3h-9A4.317,4.317,0,0,0,3,9.609V39.74a4.3,4.3,0,0,0,4.3,4.3H24.651a15.237,15.237,0,0,1-2.5-1.937,13.775,13.775,0,0,1-3.7-6.672M22.37,5.3a2.152,2.152,0,1,1-2.152,2.152A2.159,2.159,0,0,1,22.37,5.3M40.255,37.372a9.7,9.7,0,1,0-3.078,3.056l6.491,5.865L46.66,43.3l-6.405-5.929m-8.2.215a5.381,5.381,0,1,1,5.38-5.381A5.382,5.382,0,0,1,32.055,37.587Z" transform="translate(-3 -1)" opacity="0.7"/>
</svg>
