<svg xmlns="http://www.w3.org/2000/svg" width="46.007" height="43.763" viewBox="0 0 46.007 43.763">
  <path id="finance-img05" d="M137.954-782.046a8.644,8.644,0,0,1-6.34-2.637,8.644,8.644,0,0,1-2.637-6.34,8.644,8.644,0,0,1,2.637-6.34,8.644,8.644,0,0,1,6.34-2.637,8.644,8.644,0,0,1,6.34,2.637,8.644,8.644,0,0,1,2.637,6.34,8.644,8.644,0,0,1-2.637,6.34A8.644,8.644,0,0,1,137.954-782.046Zm24.911,25.809-7.182-7.182a13.988,13.988,0,0,1-2.525,1.122,8.988,8.988,0,0,1-2.861.449,9.74,9.74,0,0,1-7.154-2.946,9.739,9.739,0,0,1-2.946-7.154,9.739,9.739,0,0,1,2.946-7.154,9.739,9.739,0,0,1,7.154-2.946,9.738,9.738,0,0,1,7.154,2.946,9.739,9.739,0,0,1,2.946,7.154,8.989,8.989,0,0,1-.449,2.861,13.986,13.986,0,0,1-1.122,2.525l7.182,7.182Zm-12.568-10.1a5.417,5.417,0,0,0,3.984-1.627,5.419,5.419,0,0,0,1.627-3.984,5.418,5.418,0,0,0-1.627-3.984,5.417,5.417,0,0,0-3.984-1.627,5.417,5.417,0,0,0-3.984,1.627,5.418,5.418,0,0,0-1.627,3.984,5.418,5.418,0,0,0,1.627,3.984A5.417,5.417,0,0,0,150.3-766.336ZM138.01-779.8a13.683,13.683,0,0,0-2.356,7.855,13.682,13.682,0,0,0,2.356,7.855H120v-6.228a6.865,6.865,0,0,1,.954-3.534,6.221,6.221,0,0,1,2.637-2.469,35.129,35.129,0,0,1,6.452-2.469A29.385,29.385,0,0,1,138.01-779.8Z" transform="translate(-120 800)" opacity="0.7"/>
</svg>
