<svg xmlns="http://www.w3.org/2000/svg" width="20" height="20" viewBox="0 0 20 20">
  <path id="info" d="M109.211-845h1.579v-6.053h-1.579Zm.789-7.854a.823.823,0,0,0,.606-.245.823.823,0,0,0,.244-.606.823.823,0,0,0-.244-.606.823.823,0,0,0-.606-.244.823.823,0,0,0-.606.244.823.823,0,0,0-.244.606.823.823,0,0,0,.244.606A.823.823,0,0,0,110-852.854ZM110-840a9.742,9.742,0,0,1-3.9-.787,10.1,10.1,0,0,1-3.176-2.137,10.1,10.1,0,0,1-2.138-3.174A9.733,9.733,0,0,1,100-850a9.742,9.742,0,0,1,.787-3.9,10.1,10.1,0,0,1,2.137-3.176,10.1,10.1,0,0,1,3.174-2.138A9.733,9.733,0,0,1,110-860a9.742,9.742,0,0,1,3.9.787,10.1,10.1,0,0,1,3.176,2.137,10.1,10.1,0,0,1,2.138,3.174A9.733,9.733,0,0,1,120-850a9.742,9.742,0,0,1-.787,3.9,10.1,10.1,0,0,1-2.137,3.176,10.1,10.1,0,0,1-3.174,2.138A9.733,9.733,0,0,1,110-840Zm0-1.579a8.127,8.127,0,0,0,5.974-2.447A8.127,8.127,0,0,0,118.421-850a8.127,8.127,0,0,0-2.447-5.974A8.128,8.128,0,0,0,110-858.421a8.128,8.128,0,0,0-5.974,2.447A8.127,8.127,0,0,0,101.579-850a8.127,8.127,0,0,0,2.447,5.974A8.127,8.127,0,0,0,110-841.579ZM110-850Z" transform="translate(-100 860)" fill="#5f6368"/>
</svg>
