<svg xmlns="http://www.w3.org/2000/svg" width="23.37" height="26.933" viewBox="0 0 23.37 26.933">
  <g id="money02-img01" transform="translate(-2750.93 -2468.137)">
    <path id="database_24dp_5F6368_FILL1_wght400_GRAD0_opsz24" d="M127.037-833.745a12.16,12.16,0,0,0,4.985-.919q2.052-.919,2.052-2.209t-2.052-2.209a12.162,12.162,0,0,0-4.985-.919,12.162,12.162,0,0,0-4.985.919q-2.052.919-2.052,2.209t2.052,2.209A12.16,12.16,0,0,0,127.037-833.745Zm0,1.955a15.121,15.121,0,0,0,2-.166,12.9,12.9,0,0,0,2.316-.538,6.774,6.774,0,0,0,1.916-.968,1.766,1.766,0,0,0,.8-1.456v1.955a1.766,1.766,0,0,1-.8,1.456,6.774,6.774,0,0,1-1.916.968,12.888,12.888,0,0,1-2.316.538,15.121,15.121,0,0,1-2,.166,15.121,15.121,0,0,1-2-.166,12.888,12.888,0,0,1-2.316-.538,6.774,6.774,0,0,1-1.916-.968,1.766,1.766,0,0,1-.8-1.456v-1.955a1.766,1.766,0,0,0,.8,1.456,6.774,6.774,0,0,0,1.916.968,12.9,12.9,0,0,0,2.316.538A15.121,15.121,0,0,0,127.037-831.79Zm0,3.909a15.121,15.121,0,0,0,2-.166,12.9,12.9,0,0,0,2.316-.537,6.774,6.774,0,0,0,1.916-.968,1.766,1.766,0,0,0,.8-1.456v1.955a1.766,1.766,0,0,1-.8,1.456,6.774,6.774,0,0,1-1.916.968,12.887,12.887,0,0,1-2.316.537,15.124,15.124,0,0,1-2,.166,15.124,15.124,0,0,1-2-.166,12.887,12.887,0,0,1-2.316-.537,6.774,6.774,0,0,1-1.916-.968,1.766,1.766,0,0,1-.8-1.456v-1.955a1.766,1.766,0,0,0,.8,1.456,6.774,6.774,0,0,0,1.916.968,12.9,12.9,0,0,0,2.316.537A15.121,15.121,0,0,0,127.037-827.881Z" transform="translate(2637.217 3308.137)" fill="#505050"/>
    <rect id="사각형_105" data-name="사각형 105" width="14" height="9" transform="translate(2760.3 2479)" fill="#fff"/>
    <path id="database_24dp_5F6368_FILL1_wght400_GRAD0_opsz24-2" data-name="database_24dp_5F6368_FILL1_wght400_GRAD0_opsz24" d="M127.037-833.745a12.16,12.16,0,0,0,4.985-.919q2.052-.919,2.052-2.209t-2.052-2.209a12.162,12.162,0,0,0-4.985-.919,12.162,12.162,0,0,0-4.985.919q-2.052.919-2.052,2.209t2.052,2.209A12.16,12.16,0,0,0,127.037-833.745Zm0,1.955a15.121,15.121,0,0,0,2-.166,12.9,12.9,0,0,0,2.316-.538,6.774,6.774,0,0,0,1.916-.968,1.766,1.766,0,0,0,.8-1.456v1.955a1.766,1.766,0,0,1-.8,1.456,6.774,6.774,0,0,1-1.916.968,12.888,12.888,0,0,1-2.316.538,15.121,15.121,0,0,1-2,.166,15.121,15.121,0,0,1-2-.166,12.888,12.888,0,0,1-2.316-.538,6.774,6.774,0,0,1-1.916-.968,1.766,1.766,0,0,1-.8-1.456v-1.955a1.766,1.766,0,0,0,.8,1.456,6.774,6.774,0,0,0,1.916.968,12.9,12.9,0,0,0,2.316.538A15.121,15.121,0,0,0,127.037-831.79Zm0,3.909a15.121,15.121,0,0,0,2-.166,12.9,12.9,0,0,0,2.316-.537,6.774,6.774,0,0,0,1.916-.968,1.766,1.766,0,0,0,.8-1.456v1.955a1.766,1.766,0,0,1-.8,1.456,6.774,6.774,0,0,1-1.916.968,12.887,12.887,0,0,1-2.316.537,15.124,15.124,0,0,1-2,.166,15.124,15.124,0,0,1-2-.166,12.887,12.887,0,0,1-2.316-.537,6.774,6.774,0,0,1-1.916-.968,1.766,1.766,0,0,1-.8-1.456v-1.955a1.766,1.766,0,0,0,.8,1.456,6.774,6.774,0,0,0,1.916.968,12.9,12.9,0,0,0,2.316.537A15.121,15.121,0,0,0,127.037-827.881Z" transform="translate(2640.217 3316.137)"/>
    <circle id="타원_19" data-name="타원 19" cx="6" cy="6" r="6" transform="translate(2752 2482)" fill="#fff"/>
    <path id="paid_24dp_5F6368_FILL1_wght400_GRAD0_opsz24" d="M87.07-865.86a6.884,6.884,0,0,1-2.757-.557,7.138,7.138,0,0,1-2.245-1.511,7.14,7.14,0,0,1-1.511-2.245A6.885,6.885,0,0,1,80-872.93a6.885,6.885,0,0,1,.557-2.757,7.14,7.14,0,0,1,1.511-2.245,7.139,7.139,0,0,1,2.245-1.511A6.885,6.885,0,0,1,87.07-880a6.885,6.885,0,0,1,2.757.557,7.139,7.139,0,0,1,2.245,1.511,7.14,7.14,0,0,1,1.511,2.245,6.885,6.885,0,0,1,.557,2.757,6.885,6.885,0,0,1-.557,2.757,7.14,7.14,0,0,1-1.511,2.245,7.138,7.138,0,0,1-2.245,1.511A6.884,6.884,0,0,1,87.07-865.86Zm-.018-2.121a.593.593,0,0,0,.433-.186.593.593,0,0,0,.186-.433v-.265a3.218,3.218,0,0,0,1.52-.689,1.931,1.931,0,0,0,.636-1.573,2.355,2.355,0,0,0-.424-1.361,3.423,3.423,0,0,0-1.7-1.078,7.069,7.069,0,0,1-1.467-.619.824.824,0,0,1-.407-.725.883.883,0,0,1,.327-.725,1.47,1.47,0,0,1,.946-.265,1.449,1.449,0,0,1,.619.124,1.26,1.26,0,0,1,.442.336.929.929,0,0,0,.4.292.533.533,0,0,0,.415-.009.612.612,0,0,0,.362-.362.488.488,0,0,0-.044-.468,2.679,2.679,0,0,0-.7-.689,1.8,1.8,0,0,0-.893-.318v-.265a.594.594,0,0,0-.186-.433.594.594,0,0,0-.433-.186.593.593,0,0,0-.433.186.593.593,0,0,0-.186.433V-877a2.426,2.426,0,0,0-1.379.778,1.97,1.97,0,0,0-.495,1.308,1.872,1.872,0,0,0,.486,1.343,3.887,3.887,0,0,0,1.529.884,6.762,6.762,0,0,1,1.547.725.985.985,0,0,1,.433.831.953.953,0,0,1-.415.857,1.772,1.772,0,0,1-1,.274,1.593,1.593,0,0,1-.831-.221,1.731,1.731,0,0,1-.619-.663.728.728,0,0,0-.371-.336.62.62,0,0,0-.46,0,.616.616,0,0,0-.362.336.544.544,0,0,0-.009.477,2.7,2.7,0,0,0,.76.981,2.71,2.71,0,0,0,1.149.521v.3a.593.593,0,0,0,.186.433A.594.594,0,0,0,87.052-867.981Z" transform="translate(2670.93 3360.93)"/>
  </g>
</svg>
