<svg xmlns="http://www.w3.org/2000/svg" width="23.273" height="23.291" viewBox="0 0 23.273 23.291">
  <g id="money02-img02" transform="translate(-2792.54 -2479.174)">
    <path id="bar_chart_4_bars_24dp_5F6368_FILL1_wght400_GRAD0_opsz24" d="M80.988-822.209a.957.957,0,0,1-.7-.284.956.956,0,0,1-.284-.7.956.956,0,0,1,.284-.7.957.957,0,0,1,.7-.284H98.779a.957.957,0,0,1,.7.284.956.956,0,0,1,.284.7.956.956,0,0,1-.284.7.957.957,0,0,1-.7.284Zm6.424-2.965a1.43,1.43,0,0,1-1.05-.432,1.43,1.43,0,0,1-.432-1.05v-10.9a1.43,1.43,0,0,1,.432-1.05,1.43,1.43,0,0,1,1.05-.432,1.43,1.43,0,0,1,1.05.432,1.43,1.43,0,0,1,.432,1.05v10.9a1.43,1.43,0,0,1-.432,1.05A1.43,1.43,0,0,1,87.413-825.174Zm4.942,0a1.43,1.43,0,0,1-1.05-.432,1.43,1.43,0,0,1-.432-1.05v-7.93a1.43,1.43,0,0,1,.432-1.05,1.43,1.43,0,0,1,1.05-.432,1.43,1.43,0,0,1,1.05.432,1.43,1.43,0,0,1,.432,1.05v7.93a1.43,1.43,0,0,1-.432,1.05A1.43,1.43,0,0,1,92.355-825.174Zm4.942,0a1.43,1.43,0,0,1-1.05-.432,1.43,1.43,0,0,1-.432-1.05v-15.86a1.43,1.43,0,0,1,.432-1.05A1.43,1.43,0,0,1,97.3-844a1.43,1.43,0,0,1,1.05.432,1.43,1.43,0,0,1,.432,1.05v15.86a1.43,1.43,0,0,1-.432,1.05A1.43,1.43,0,0,1,97.3-825.174Z" transform="translate(2716.046 3323.174)" opacity="0.7"/>
    <g id="currency-usd" transform="translate(2787.04 2487.143)">
      <path d="M 11.65785884857178 14.57177829742432 L 10.90785884857178 14.57177829742432 L 9.104239463806152 14.57177829742432 L 8.354239463806152 14.57177829742432 L 8.354239463806152 13.82177829742432 L 8.354239463806152 13.05363178253174 C 7.074621677398682 12.53386211395264 6.249999046325684 11.44797611236572 6.249999046325684 10.21451854705811 L 6.249999046325684 9.464518547058105 L 6.999999046325684 9.464518547058105 L 8.202419281005859 9.464518547058105 L 8.735605239868164 9.464518547058105 C 8.328655242919922 9.335997581481934 7.922640323638916 9.173688888549805 7.555109024047852 8.94373893737793 C 6.689099311828613 8.401898384094238 6.249999046325684 7.615788459777832 6.249999046325684 6.607258796691895 C 6.249999046325684 5.373800754547119 7.074621677398682 4.287915229797363 8.354239463806152 3.768145799636841 L 8.354239463806152 2.999998569488525 L 8.354239463806152 2.249998569488525 L 9.104239463806152 2.249998569488525 L 10.90785884857178 2.249998569488525 L 11.65785884857178 2.249998569488525 L 11.65785884857178 2.999998569488525 L 11.65785884857178 3.768145799636841 C 12.93747711181641 4.287915229797363 13.76209926605225 5.373800754547119 13.76209926605225 6.607258796691895 L 13.76209926605225 7.357258796691895 L 13.01209926605225 7.357258796691895 L 11.80967903137207 7.357258796691895 L 11.27649307250977 7.357258796691895 C 11.68344306945801 7.485779285430908 12.08945751190186 7.648088932037354 12.45698928833008 7.878038883209229 C 13.32299900054932 8.419878959655762 13.76209926605225 9.205988883972168 13.76209926605225 10.21451854705811 C 13.76209926605225 11.44797611236572 12.93747711181641 12.53386211395264 11.65785884857178 13.05363178253174 L 11.65785884857178 13.82177829742432 L 11.65785884857178 14.57177829742432 Z M 8.952419281005859 9.530020713806152 L 8.952419281005859 10.21451854705811 C 8.952419281005859 10.32358837127686 9.337689399719238 10.66693878173828 10.00604915618896 10.66693878173828 C 10.67440891265869 10.66693878173828 11.05967903137207 10.32358837127686 11.05967903137207 10.21451854705811 C 11.05967903137207 10.20587253570557 11.05930328369141 10.1994161605835 11.05888175964355 10.1948938369751 C 10.95358753204346 10.07597827911377 10.49197864532471 9.917337417602539 9.686099052429199 9.723198890686035 L 9.682979583740234 9.722448348999023 L 9.679859161376953 9.721668243408203 C 9.445224761962891 9.663009643554688 9.199883460998535 9.60167121887207 8.952419281005859 9.530020713806152 Z M 8.953216552734375 6.626883506774902 C 9.058510780334473 6.745799541473389 9.520119667053223 6.904439926147461 10.32599925994873 7.098578453063965 L 10.3291187286377 7.099328517913818 L 10.33223915100098 7.100108623504639 C 10.56687355041504 7.158768177032471 10.81221485137939 7.22010612487793 11.05967903137207 7.291756629943848 L 11.05967903137207 6.607258796691895 C 11.05967903137207 6.498188495635986 10.67440891265869 6.154838562011719 10.00604915618896 6.154838562011719 C 9.337689399719238 6.154838562011719 8.952419281005859 6.498188495635986 8.952419281005859 6.607258796691895 C 8.952419281005859 6.615904808044434 8.952795028686523 6.622360706329346 8.953216552734375 6.626883506774902 Z" stroke="none"/>
      <path d="M 10.90785884857178 13.82177829742432 L 10.90785884857178 12.51113891601562 C 12.12831878662109 12.20451831817627 13.01209926605225 11.29068851470947 13.01209926605225 10.21451854705811 C 13.01209926605225 8.543158531188965 11.42489910125732 8.146358489990234 10.15033912658691 7.827718734741211 C 8.827678680419922 7.509078502655029 8.202419281005859 7.268588542938232 8.202419281005859 6.607258796691895 C 8.202419281005859 5.957948684692383 9.026079177856445 5.404838562011719 10.00604915618896 5.404838562011719 C 10.98601913452148 5.404838562011719 11.80967903137207 5.957948684692383 11.80967903137207 6.607258796691895 L 13.01209926605225 6.607258796691895 C 13.01209926605225 5.53109884262085 12.12831878662109 4.617258548736572 10.90785884857178 4.310638904571533 L 10.90785884857178 2.999998569488525 L 9.104239463806152 2.999998569488525 L 9.104239463806152 4.310638904571533 C 7.883779048919678 4.617258548736572 6.999999046325684 5.53109884262085 6.999999046325684 6.607258796691895 C 6.999999046325684 8.278618812561035 8.587199211120605 8.675418853759766 9.861759185791016 8.994058609008789 C 11.18441963195801 9.312698364257812 11.80967903137207 9.553188323974609 11.80967903137207 10.21451854705811 C 11.80967903137207 10.86382865905762 10.98601913452148 11.41693878173828 10.00604915618896 11.41693878173828 C 9.026079177856445 11.41693878173828 8.202419281005859 10.86382865905762 8.202419281005859 10.21451854705811 L 6.999999046325684 10.21451854705811 C 6.999999046325684 11.29068851470947 7.883779048919678 12.20451831817627 9.104239463806152 12.51113891601562 L 9.104239463806152 13.82177829742432 L 10.90785884857178 13.82177829742432 M 12.40785884857178 15.32177829742432 L 7.604238986968994 15.32177829742432 L 7.604238986968994 13.52666091918945 C 7.18586254119873 13.29955577850342 6.812121391296387 13.01254081726074 6.496428966522217 12.67334842681885 C 5.853868961334229 11.98295879364014 5.499999046325684 11.10972881317139 5.499999046325684 10.21451854705811 L 5.499999046325684 8.714518547058105 L 6.186649322509766 8.714518547058105 C 5.734244823455811 8.128872871398926 5.499999046325684 7.416821002960205 5.499999046325684 6.607258796691895 C 5.499999046325684 5.712048530578613 5.853868961334229 4.838828563690186 6.496428966522217 4.148428440093994 C 6.812121391296387 3.809236288070679 7.18586254119873 3.522221326828003 7.604238986968994 3.295116662979126 L 7.604238986968994 1.499998688697815 L 12.40785884857178 1.499998688697815 L 12.40785884857178 3.295116662979126 C 12.8262357711792 3.522221326828003 13.19997692108154 3.809236288070679 13.51566886901855 4.148428440093994 C 14.15822887420654 4.838828563690186 14.51209926605225 5.712048530578613 14.51209926605225 6.607258796691895 L 14.51209926605225 8.107258796691895 L 13.82544898986816 8.107258796691895 C 14.27785396575928 8.692904472351074 14.51209926605225 9.404955863952637 14.51209926605225 10.21451854705811 C 14.51209926605225 11.10972881317139 14.15822887420654 11.98295879364014 13.51566886901855 12.67334842681885 C 13.19997692108154 13.01254081726074 12.8262357711792 13.29955577850342 12.40785884857178 13.52666091918945 L 12.40785884857178 15.32177829742432 Z" stroke="none" fill="#fff"/>
    </g>
    <g id="currency-usd-2" data-name="currency-usd" transform="translate(2787.04 2487.143)">
      <path d="M 10.95785903930664 13.87177848815918 L 10.90785884857178 13.87177848815918 L 9.104239463806152 13.87177848815918 L 9.054239273071289 13.87177848815918 L 9.054239273071289 13.82177829742432 L 9.054239273071289 12.5499153137207 C 7.793951511383057 12.21911430358887 6.949999332427979 11.28463172912598 6.949999332427979 10.21451854705811 L 6.949999332427979 10.16451835632324 L 6.999999046325684 10.16451835632324 L 8.202419281005859 10.16451835632324 L 8.252419471740723 10.16451835632324 L 8.252419471740723 10.21451854705811 C 8.252419471740723 10.83919906616211 9.055479049682617 11.36693859100342 10.00604915618896 11.36693859100342 C 10.95661926269531 11.36693859100342 11.75967884063721 10.83919906616211 11.75967884063721 10.21451854705811 C 11.75967884063721 9.601618766784668 11.19672870635986 9.367088317871094 9.850049018859863 9.042668342590332 C 8.557768821716309 8.719598770141602 6.949999332427979 8.317658424377441 6.949999332427979 6.607258796691895 C 6.949999332427979 5.537145137786865 7.793951511383057 4.602663516998291 9.054239273071289 4.271862506866455 L 9.054239273071289 2.999998569488525 L 9.054239273071289 2.949998617172241 L 9.104239463806152 2.949998617172241 L 10.90785884857178 2.949998617172241 L 10.95785903930664 2.949998617172241 L 10.95785903930664 2.999998569488525 L 10.95785903930664 4.271862506866455 C 12.21814632415771 4.602663516998291 13.06209945678711 5.537145137786865 13.06209945678711 6.607258796691895 L 13.06209945678711 6.6572585105896 L 13.01209926605225 6.6572585105896 L 11.80967903137207 6.6572585105896 L 11.75967884063721 6.6572585105896 L 11.75967884063721 6.607258796691895 C 11.75967884063721 5.982578754425049 10.95661926269531 5.454838752746582 10.00604915618896 5.454838752746582 C 9.055479049682617 5.454838752746582 8.252419471740723 5.982578754425049 8.252419471740723 6.607258796691895 C 8.252419471740723 7.220158576965332 8.815369606018066 7.454688549041748 10.16204929351807 7.77910852432251 C 11.45432949066162 8.102178573608398 13.06209945678711 8.504118919372559 13.06209945678711 10.21451854705811 C 13.06209945678711 11.28463172912598 12.21814632415771 12.21911430358887 10.95785903930664 12.5499153137207 L 10.95785903930664 13.82177829742432 L 10.95785903930664 13.87177848815918 Z" stroke="none"/>
      <path d="M 10.90785884857178 13.82177829742432 L 10.90785884857178 12.51113891601562 C 12.12831878662109 12.20451831817627 13.01209926605225 11.29068851470947 13.01209926605225 10.21451854705811 C 13.01209926605225 8.543158531188965 11.42489910125732 8.146358489990234 10.15033912658691 7.827718734741211 C 8.827678680419922 7.509078502655029 8.202419281005859 7.268588542938232 8.202419281005859 6.607258796691895 C 8.202419281005859 5.957948684692383 9.026079177856445 5.404838562011719 10.00604915618896 5.404838562011719 C 10.98601913452148 5.404838562011719 11.80967903137207 5.957948684692383 11.80967903137207 6.607258796691895 L 13.01209926605225 6.607258796691895 C 13.01209926605225 5.53109884262085 12.12831878662109 4.617258548736572 10.90785884857178 4.310638904571533 L 10.90785884857178 2.999998569488525 L 9.104239463806152 2.999998569488525 L 9.104239463806152 4.310638904571533 C 7.883779048919678 4.617258548736572 6.999999046325684 5.53109884262085 6.999999046325684 6.607258796691895 C 6.999999046325684 8.278618812561035 8.587199211120605 8.675418853759766 9.861759185791016 8.994058609008789 C 11.18441963195801 9.312698364257812 11.80967903137207 9.553188323974609 11.80967903137207 10.21451854705811 C 11.80967903137207 10.86382865905762 10.98601913452148 11.41693878173828 10.00604915618896 11.41693878173828 C 9.026079177856445 11.41693878173828 8.202419281005859 10.86382865905762 8.202419281005859 10.21451854705811 L 6.999999046325684 10.21451854705811 C 6.999999046325684 11.29068851470947 7.883779048919678 12.20451831817627 9.104239463806152 12.51113891601562 L 9.104239463806152 13.82177829742432 L 10.90785884857178 13.82177829742432 M 11.0078592300415 13.92177867889404 L 9.004239082336426 13.92177867889404 L 9.004239082336426 12.58828735351562 C 7.7422776222229 12.24305725097656 6.899999141693115 11.29714107513428 6.899999141693115 10.21451854705811 L 6.899999141693115 10.1145191192627 L 8.30241870880127 10.1145191192627 L 8.30241870880127 10.21451854705811 C 8.30241870880127 10.81208896636963 9.082589149475098 11.31693840026855 10.00604915618896 11.31693840026855 C 10.92950916290283 11.31693840026855 11.70967960357666 10.81208896636963 11.70967960357666 10.21451854705811 C 11.70967960357666 9.635539054870605 11.15800952911377 9.409198760986328 9.838338851928711 9.091279029846191 C 8.528769493103027 8.763888359069824 6.899999141693115 8.356698989868164 6.899999141693115 6.607258796691895 C 6.899999141693115 5.524636268615723 7.7422776222229 4.578719615936279 9.004239082336426 4.233489513397217 L 9.004239082336426 2.899998664855957 L 11.0078592300415 2.899998664855957 L 11.0078592300415 4.233489513397217 C 12.26982116699219 4.578719615936279 13.11209869384766 5.524636268615723 13.11209869384766 6.607258796691895 L 13.11209869384766 6.707258701324463 L 11.70967960357666 6.707258701324463 L 11.70967960357666 6.607258796691895 C 11.70967960357666 6.009688854217529 10.92950916290283 5.504838466644287 10.00604915618896 5.504838466644287 C 9.082589149475098 5.504838466644287 8.30241870880127 6.009688854217529 8.30241870880127 6.607258796691895 C 8.30241870880127 7.186238765716553 8.85408878326416 7.412578582763672 10.17375946044922 7.730498790740967 C 11.4833288192749 8.057888984680176 13.11209869384766 8.465078353881836 13.11209869384766 10.21451854705811 C 13.11209869384766 11.29714107513428 12.26982116699219 12.24305725097656 11.0078592300415 12.58828735351562 L 11.0078592300415 13.92177867889404 Z" stroke="none" fill="#000"/>
    </g>
  </g>
</svg>
