<svg xmlns="http://www.w3.org/2000/svg" width="24" height="24" viewBox="0 0 24 24">
  <g id="normal-img" transform="translate(-5 1)">
    <path id="패스_8" data-name="패스 8" d="M0,0H24V24H0Z" transform="translate(5 -1)" fill="none"/>
    <path id="제외_1" data-name="제외 1" d="M-3297-1774a10.011,10.011,0,0,1-10-10,10.011,10.011,0,0,1,10-10,10.011,10.011,0,0,1,10,10A10.011,10.011,0,0,1-3297-1774Zm-.047-5.7a1.7,1.7,0,0,0-1.156.4,1.322,1.322,0,0,0-.461,1.037,1.367,1.367,0,0,0,.457,1.033,1.641,1.641,0,0,0,1.16.426,1.637,1.637,0,0,0,1.156-.413,1.373,1.373,0,0,0,.444-1.046,1.34,1.34,0,0,0-.448-1.032A1.649,1.649,0,0,0-3297.047-1779.7Zm-1.477-9.905.325,8.683h2.25l.343-8.683Z" transform="translate(3314 1796)" fill="#ffa800"/>
  </g>
</svg>
