<svg xmlns="http://www.w3.org/2000/svg" width="11.137" height="14.339" viewBox="0 0 11.137 14.339">
  <path id="notice" d="M-5954.846-1937.192a1.75,1.75,0,0,1-.533-1.28h3.623a1.744,1.744,0,0,1-.533,1.28,1.743,1.743,0,0,1-1.278.531A1.743,1.743,0,0,1-5954.846-1937.192Zm-4.155-2.7v-.667h1.393v-4.872a4.077,4.077,0,0,1,.87-2.566,4.018,4.018,0,0,1,2.261-1.47v-.487a1,1,0,0,1,.305-.739,1.008,1.008,0,0,1,.74-.305,1,1,0,0,1,.739.305,1,1,0,0,1,.305.739v.487a4.017,4.017,0,0,1,2.261,1.47,4.077,4.077,0,0,1,.871,2.566v4.872h1.392v.667Z" transform="translate(5959 1951)" fill="#000064"/>
</svg>
