<svg xmlns="http://www.w3.org/2000/svg" width="581" height="249.298" viewBox="0 0 581 249.298">
  <g id="pie-chart" transform="translate(-1339 -457.702)">
    <rect id="사각형_41" data-name="사각형 41" width="94" height="25" rx="12.5" transform="translate(1434.5 488)" fill="#f3f4fb"/>
    <rect id="사각형_42" data-name="사각형 42" width="112" height="25" rx="12.5" transform="translate(1407.5 600)" fill="#f3f4fb"/>
    <rect id="사각형_43" data-name="사각형 43" width="101" height="25" rx="12.5" transform="translate(1759.5 611)" fill="#f3f4fb"/>
    <rect id="사각형_44" data-name="사각형 44" width="96" height="25" rx="12.5" transform="translate(1764.5 559)" fill="#f3f4fb"/>
    <g id="타원_7" data-name="타원 7" transform="translate(1555 490)" fill="none" stroke="#4bc0c0" stroke-width="42">
      <circle cx="79" cy="79" r="79" stroke="none"/>
      <circle cx="79" cy="79" r="58" fill="none"/>
    </g>
    <g id="타원_10" data-name="타원 10" transform="translate(1624.263 457.702) rotate(40)" fill="none" stroke="#ffcd56" stroke-width="42" stroke-dasharray="190 306">
      <circle cx="79" cy="79" r="79" stroke="none"/>
      <circle cx="79" cy="79" r="58" fill="none"/>
    </g>
    <g id="타원_9" data-name="타원 9" transform="matrix(0.438, 0.899, -0.899, 0.438, 1670.373, 463.364)" fill="none" stroke="#ff9f40" stroke-width="42" stroke-dasharray="100 434">
      <circle cx="79" cy="79" r="79" stroke="none"/>
      <circle cx="79" cy="79" r="58" fill="none"/>
    </g>
    <g id="타원_8" data-name="타원 8" transform="matrix(0.174, -0.985, 0.985, 0.174, 1542.482, 633.082)" fill="none" stroke="#0880bb" stroke-width="42" stroke-dasharray="223 279">
      <circle cx="79" cy="79" r="79" stroke="none"/>
      <circle cx="79" cy="79" r="58" fill="none"/>
    </g>
    <g id="그룹_36" data-name="그룹 36" transform="translate(-19 -1)">
      <path id="합치기_3" data-name="합치기 3" d="M42.225,0,65.56,21ZM0,0H0Z" transform="translate(1535.5 501.5)" fill="#c9cfd7" stroke="#c9cfd7" stroke-width="1"/>
      <g id="패스_6" data-name="패스 6" transform="translate(1532.517 505.731) rotate(-90)" fill="#c9cfd7" stroke-linecap="square">
        <path d="M 6.489744186401367 5.4386887550354 L 4.45570707321167 3.483303546905518 L 4.098987102508545 3.140383720397949 L 3.752367258071899 3.493493556976318 L 1.936410069465637 5.343461513519287 L 4.122010707855225 1.072508811950684 L 6.489744186401367 5.4386887550354 Z" stroke="none"/>
        <path d="M 4.134834289550781 2.145023822784424 L 3.872823238372803 2.657028675079346 L 4.088797092437744 2.437013626098633 L 4.515760898590088 2.847465515136719 L 4.134834289550781 2.145023822784424 M 4.109187126159668 3.814697265625e-06 L 8.463717460632324 8.029903411865234 L 4.109187126159668 3.843753814697266 L -2.86102294921875e-06 8.029903411865234 L 4.109187126159668 3.814697265625e-06 Z" stroke="none" fill="#c9cfd7"/>
      </g>
      <circle id="타원_11" data-name="타원 11" cx="3" cy="3" r="3" transform="translate(1600.5 522)" fill="none" stroke="#c9cfd7" stroke-width="1"/>
    </g>
    <g id="그룹_37" data-name="그룹 37" transform="translate(1502.517 586.268)">
      <path id="합치기_3-2" data-name="합치기 3" d="M42.225,21,65.56,0ZM0,21H0Z" transform="translate(2.983 5.5)" fill="#c9cfd7" stroke="#c9cfd7" stroke-width="1"/>
      <g id="패스_6-2" data-name="패스 6" transform="translate(8.03 22.268) rotate(90)" fill="#c9cfd7" stroke-linecap="square">
        <path d="M 4.122010707855225 6.957413196563721 L 1.936408281326294 2.686446189880371 L 3.752367258071899 4.536420345306396 L 4.098987102508545 4.889530181884766 L 4.45570707321167 4.546610355377197 L 6.48974609375 2.5912184715271 L 4.122010707855225 6.957413196563721 Z" stroke="none"/>
        <path d="M 4.134834289550781 5.884895801544189 L 4.515760898590088 5.18245267868042 L 4.088797092437744 5.592910289764404 L 3.872825622558594 5.372894763946533 L 4.134834289550781 5.884895801544189 M 4.109187126159668 8.02992057800293 L -2.700195409488515e-06 2.890014627610071e-07 L 4.109187126159668 4.186160087585449 L 8.463717460632324 2.890014627610071e-07 L 4.109187126159668 8.02992057800293 Z" stroke="none" fill="#c9cfd7"/>
      </g>
      <ellipse id="타원_11-2" data-name="타원 11" cx="3" cy="3" rx="3" ry="3" transform="translate(67.983)" fill="none" stroke="#c9cfd7" stroke-width="1"/>
    </g>
    <text id="기타" transform="translate(1481.5 506)" font-size="14" font-family="NotoSansCJKkr-Medium, Noto Sans CJK KR" font-weight="500" opacity="0.7"><tspan x="-12.88" y="0">기타</tspan></text>
    <text id="주류" transform="translate(1807.5 577)" font-size="14" font-family="NotoSansCJKkr-Medium, Noto Sans CJK KR" font-weight="500" opacity="0.7"><tspan x="-12.88" y="0">주류</tspan></text>
    <text id="대료실" transform="translate(1806.5 629)" font-size="14" font-family="NotoSansCJKkr-Medium, Noto Sans CJK KR" font-weight="500" opacity="0.7"><tspan x="-19.32" y="0">대료실</tspan></text>
    <text id="세트메뉴" transform="translate(1463.5 618)" font-size="14" font-family="NotoSansCJKkr-Medium, Noto Sans CJK KR" font-weight="500" opacity="0.7"><tspan x="-25.76" y="0">세트메뉴</tspan></text>
    <g id="그룹_38" data-name="그룹 38" transform="translate(1665.652 609.634)">
      <path id="합치기_3-3" data-name="합치기 3" d="M56.652,11.633,65.561,21Zm-93,0,93,.366Z" transform="translate(71 26.5) rotate(180)" fill="#c9cfd7" stroke="#c9cfd7" stroke-width="1"/>
      <g id="패스_6-3" data-name="패스 6" transform="translate(109.984 10.634) rotate(90)" fill="#c9cfd7" stroke-linecap="square">
        <path d="M 6.48974609375 5.43870210647583 L 4.45570707321167 3.483310222625732 L 4.098987102508545 3.140390396118164 L 3.752367258071899 3.493500232696533 L 1.936408281326294 5.343474388122559 L 4.122010707855225 1.072507619857788 L 6.48974609375 5.43870210647583 Z" stroke="none"/>
        <path d="M 4.134834289550781 2.14502477645874 L 3.872825622558594 2.657025814056396 L 4.088797092437744 2.437010288238525 L 4.515761375427246 2.84746789932251 L 4.134834289550781 2.14502477645874 M 4.109187126159668 0 L 8.463717460632324 8.02992057800293 L 4.109187126159668 3.84376049041748 L -2.86102294921875e-06 8.02992057800293 L 4.109187126159668 0 Z" stroke="none" fill="#c9cfd7"/>
      </g>
      <ellipse id="타원_11-3" data-name="타원 11" cx="3" cy="3" rx="3" ry="3" transform="translate(0)" fill="none" stroke="#c9cfd7" stroke-width="1"/>
    </g>
    <g id="그룹_39" data-name="그룹 39" transform="translate(1702.644 561.634)">
      <path id="합치기_3-4" data-name="합치기 3" d="M59.115,16l-62.471-.366L59.115,16l-.471-.366.471.366h0l6.445,5Z" transform="translate(71 26.5) rotate(180)" fill="#c9cfd7" stroke="#c9cfd7" stroke-width="1"/>
      <g id="패스_6-4" data-name="패스 6" transform="translate(78.371 6.635) rotate(90)" fill="#c9cfd7" stroke-linecap="square">
        <path d="M 6.48974609375 5.43870210647583 L 4.45570707321167 3.483310222625732 L 4.098987102508545 3.140390396118164 L 3.752367258071899 3.493500232696533 L 1.936408281326294 5.343474388122559 L 4.122010707855225 1.072507619857788 L 6.48974609375 5.43870210647583 Z" stroke="none"/>
        <path d="M 4.134834289550781 2.14502477645874 L 3.872825622558594 2.657025814056396 L 4.088797092437744 2.437010288238525 L 4.515761375427246 2.84746789932251 L 4.134834289550781 2.14502477645874 M 4.109187126159668 0 L 8.463717460632324 8.02992057800293 L 4.109187126159668 3.84376049041748 L -2.86102294921875e-06 8.02992057800293 L 4.109187126159668 0 Z" stroke="none" fill="#c9cfd7"/>
      </g>
      <ellipse id="타원_11-4" data-name="타원 11" cx="3" cy="3" rx="3" ry="3" transform="translate(0)" fill="none" stroke="#c9cfd7" stroke-width="1"/>
    </g>
    <g id="그룹_35" data-name="그룹 35" transform="translate(876.5 316)">
      <g id="그룹_40" data-name="그룹 40">
        <rect id="사각형_35" data-name="사각형 35" width="9" height="9" transform="translate(828 379)" fill="#ffcd56"/>
        <rect id="사각형_37" data-name="사각형 37" width="9" height="9" transform="translate(774 379)" fill="#ff9f40"/>
        <rect id="사각형_38" data-name="사각형 38" width="9" height="9" transform="translate(707 379)" fill="#4bc0c0"/>
        <rect id="사각형_39" data-name="사각형 39" width="9" height="9" transform="translate(655 379)" fill="#0880bb"/>
        <text id="대료실-2" data-name="대료실" transform="translate(843 388)" font-size="10" font-family="NotoSansCJKkr-Medium, Noto Sans CJK KR" font-weight="500" opacity="0.54"><tspan x="0" y="0">대료실</tspan></text>
        <text id="주류-2" data-name="주류" transform="translate(789 388)" font-size="11" font-family="NotoSansCJKkr-Medium, Noto Sans CJK KR" font-weight="500" opacity="0.54"><tspan x="0" y="0">주류</tspan></text>
        <text id="세트메뉴-2" data-name="세트메뉴" transform="translate(722 388)" font-size="10" font-family="NotoSansCJKkr-Medium, Noto Sans CJK KR" font-weight="500" opacity="0.54"><tspan x="0" y="0">세트메뉴</tspan></text>
        <text id="기타-2" data-name="기타" transform="translate(670 388)" font-size="10" font-family="NotoSansCJKkr-Medium, Noto Sans CJK KR" font-weight="500" opacity="0.54"><tspan x="0" y="0">기타</tspan></text>
      </g>
      <line id="선_32" data-name="선 32" x2="581" transform="translate(462.5 369.5)" fill="none" stroke="#e0e0e3" stroke-width="1" stroke-dasharray="1"/>
    </g>
  </g>
</svg>
