<svg xmlns="http://www.w3.org/2000/svg" width="18.314" height="18.314" viewBox="0 0 18.314 18.314">
  <path id="pw" d="M120-784.578v-2.7a2.823,2.823,0,0,1,.422-1.506,2.811,2.811,0,0,1,1.121-1.048,14.309,14.309,0,0,1,3.036-1.121,13.264,13.264,0,0,1,3.133-.373q.482,0,.964.036t.964.108a5.131,5.131,0,0,0,.506,2.639,5.182,5.182,0,0,0,1.759,2.036v1.928Zm15.422,2.892-1.446-1.446v-4.482a3.321,3.321,0,0,1-1.735-1.193,3.253,3.253,0,0,1-.675-2.036,3.251,3.251,0,0,1,.988-2.386,3.25,3.25,0,0,1,2.386-.988,3.25,3.25,0,0,1,2.386.988,3.251,3.251,0,0,1,.988,2.386,3.19,3.19,0,0,1-.614,1.928,3.4,3.4,0,0,1-1.554,1.2l1.2,1.2L135.9-785.06l1.446,1.446Zm-7.711-10.6a3.713,3.713,0,0,1-2.723-1.133,3.713,3.713,0,0,1-1.133-2.723,3.713,3.713,0,0,1,1.133-2.723A3.713,3.713,0,0,1,127.711-800a3.713,3.713,0,0,1,2.723,1.133,3.713,3.713,0,0,1,1.133,2.723,3.713,3.713,0,0,1-1.133,2.723A3.713,3.713,0,0,1,127.711-792.289Zm7.229,1.928a.933.933,0,0,0,.687-.277.933.933,0,0,0,.277-.687.933.933,0,0,0-.277-.687.932.932,0,0,0-.687-.277.932.932,0,0,0-.687.277.933.933,0,0,0-.277.687.933.933,0,0,0,.277.687A.933.933,0,0,0,134.94-790.361Z" transform="translate(-120 800)" fill="#5f6368"/>
</svg>
