<svg xmlns="http://www.w3.org/2000/svg" width="11.997" height="12.5" viewBox="0 0 11.997 12.5">
  <path id="setting" d="M150.849-815.5l-.251-2.012a4.118,4.118,0,0,1-.835-.359,3.72,3.72,0,0,1-.763-.539l-1.85.79L146-819.631l1.6-1.2q-.036-.215-.063-.449a3.929,3.929,0,0,1-.027-.449,3.557,3.557,0,0,1,.027-.422q.027-.224.063-.512l-1.6-1.2,1.149-1.976,1.832.772a5.219,5.219,0,0,1,.781-.548,4.22,4.22,0,0,1,.817-.368l.269-2.011h2.3l.251,2.029a4.525,4.525,0,0,1,.817.368,5.167,5.167,0,0,1,.727.53l1.9-.772L158-823.869l-1.67,1.257a2,2,0,0,1,.081.458q.009.207.009.4,0,.18-.018.386t-.072.512l1.634,1.221-1.149,2.012-1.868-.808a5.449,5.449,0,0,1-.754.548,3.569,3.569,0,0,1-.79.35l-.251,2.03Zm1.113-4.67a1.527,1.527,0,0,0,1.123-.458,1.526,1.526,0,0,0,.458-1.122,1.526,1.526,0,0,0-.458-1.122,1.526,1.526,0,0,0-1.123-.458,1.526,1.526,0,0,0-1.122.458,1.526,1.526,0,0,0-.458,1.122,1.526,1.526,0,0,0,.458,1.122A1.527,1.527,0,0,0,151.963-820.169Z" transform="translate(-146 828)" fill="#c2c5d7"/>
</svg>
