<svg xmlns="http://www.w3.org/2000/svg" xmlns:xlink="http://www.w3.org/1999/xlink" width="520" zoomAndPan="magnify" viewBox="0 0 390 173.249993" height="231" preserveAspectRatio="xMidYMid meet" version="1.0"><defs><g/></defs><g fill="#32325f" fill-opacity="1"><g transform="translate(58.538085, 124.292527)"><g><path d="M 57.28125 -77.8125 C 49.632812 -77.8125 43.703125 -75.632812 39.484375 -71.28125 C 35.835938 -67.425781 34.015625 -62.515625 34.015625 -56.546875 C 34.015625 -51.703125 36.578125 -47.066406 41.703125 -42.640625 C 46.960938 -38.078125 52.644531 -35.796875 58.75 -35.796875 C 64.863281 -35.796875 69.921875 -37.832031 73.921875 -41.90625 C 77.847656 -45.90625 79.847656 -50.925781 79.921875 -56.96875 C 79.847656 -61.601562 77.707031 -66.128906 73.5 -70.546875 C 68.863281 -75.390625 63.457031 -77.8125 57.28125 -77.8125 Z M 56.96875 -69.078125 C 60.195312 -69.078125 63.460938 -67.53125 66.765625 -64.4375 C 69.847656 -61.632812 71.390625 -59.144531 71.390625 -56.96875 C 71.390625 -53.875 70.160156 -51.171875 67.703125 -48.859375 C 65.109375 -46.398438 62.054688 -45.171875 58.546875 -45.171875 C 54.898438 -45.171875 51.390625 -46.578125 48.015625 -49.390625 C 44.503906 -52.335938 42.820312 -55.53125 42.96875 -58.96875 C 42.96875 -61.351562 44.546875 -63.632812 47.703125 -65.8125 C 50.785156 -67.988281 53.875 -69.078125 56.96875 -69.078125 Z M 66.125 -12.84375 C 70.34375 -13.332031 73.890625 -13.929688 76.765625 -14.640625 C 78.378906 -15.054688 80.171875 -15.648438 82.140625 -16.421875 C 83.609375 -16.984375 84.726562 -17.335938 85.5 -17.484375 C 86.769531 -17.691406 88.492188 -17.582031 90.671875 -17.15625 C 94.453125 -16.53125 97.117188 -15.269531 98.671875 -13.375 C 99.796875 -11.894531 100.144531 -10.242188 99.71875 -8.421875 C 99.226562 -6.453125 98.492188 -5.296875 97.515625 -4.953125 C 96.671875 -4.671875 94.664062 -4.738281 91.5 -5.15625 C 87.988281 -5.582031 84.9375 -5.863281 82.34375 -6 C 77.78125 -6.28125 72.898438 -6.28125 67.703125 -6 C 58.085938 -5.363281 49.910156 -4.453125 43.171875 -3.265625 C 39.378906 -2.628906 35.378906 -1.75 31.171875 -0.625 C 28.078125 0.28125 25.863281 0.628906 24.53125 0.421875 C 22.851562 0.140625 19.90625 -1.050781 15.6875 -3.15625 C 10.5625 -5.820312 8.035156 -8.035156 8.109375 -9.796875 C 8.109375 -11.410156 9.722656 -12.003906 12.953125 -11.578125 C 18.359375 -11.296875 25.023438 -11.191406 32.953125 -11.265625 C 42.359375 -11.410156 50.890625 -11.757812 58.546875 -12.3125 L 58.4375 -12.84375 C 58.019531 -15.226562 57.53125 -17.265625 56.96875 -18.953125 C 55.914062 -22.046875 54.507812 -24.570312 52.75 -26.53125 C 50.15625 -29.132812 49.664062 -30.960938 51.28125 -32.015625 C 52.894531 -33.066406 55.984375 -32.820312 60.546875 -31.28125 C 64.691406 -29.238281 67.148438 -27.585938 67.921875 -26.328125 C 68.484375 -25.335938 68.378906 -23.40625 67.609375 -20.53125 C 67.253906 -19.195312 66.972656 -18.109375 66.765625 -17.265625 C 66.410156 -15.859375 66.164062 -14.421875 66.03125 -12.953125 Z M 66.125 -12.84375 "/></g></g></g><g fill="#ee2c27" fill-opacity="1"><g transform="translate(14.601476, 74.228439)"><g><path d="M 37.515625 1.984375 C 37.234375 1.703125 36.863281 1.363281 36.40625 0.96875 C 35.945312 0.582031 35.457031 0.234375 34.9375 -0.078125 C 34.425781 -0.390625 33.945312 -0.550781 33.5 -0.5625 C 33.0625 -0.570312 32.726562 -0.320312 32.5 0.1875 L 31.40625 2.375 L 31.171875 2.296875 L 31.171875 -11.578125 C 31.171875 -11.785156 31.300781 -12.015625 31.5625 -12.265625 C 31.820312 -12.515625 32.035156 -12.785156 32.203125 -13.078125 C 32.367188 -13.378906 32.347656 -13.726562 32.140625 -14.125 C 31.941406 -14.53125 31.375 -14.992188 30.4375 -15.515625 C 29.757812 -15.898438 29.132812 -16.253906 28.5625 -16.578125 C 28 -16.898438 27.515625 -17.070312 27.109375 -17.09375 C 26.710938 -17.125 26.382812 -16.867188 26.125 -16.328125 L 25.390625 -14.546875 L 19.515625 -14.546875 L 20.53125 -25.546875 L 33.75 -25.546875 C 34.414062 -25.546875 34.847656 -25.757812 35.046875 -26.1875 C 35.242188 -26.613281 34.976562 -27.160156 34.25 -27.828125 C 33.832031 -28.191406 33.351562 -28.566406 32.8125 -28.953125 C 32.269531 -29.347656 31.734375 -29.660156 31.203125 -29.890625 C 30.671875 -30.128906 30.179688 -30.234375 29.734375 -30.203125 C 29.296875 -30.179688 28.972656 -29.9375 28.765625 -29.46875 L 27.875 -27.40625 L 7.421875 -27.40625 C 7.191406 -27.40625 6.863281 -27.429688 6.4375 -27.484375 C 6.007812 -27.535156 5.582031 -27.597656 5.15625 -27.671875 C 4.726562 -27.753906 4.394531 -27.804688 4.15625 -27.828125 L 5.25 -25.3125 C 5.457031 -25.332031 5.835938 -25.375 6.390625 -25.4375 C 6.953125 -25.507812 7.398438 -25.546875 7.734375 -25.546875 L 15.078125 -25.546875 L 14.15625 -14.546875 L 8.515625 -14.546875 C 8.078125 -14.546875 7.503906 -14.59375 6.796875 -14.6875 C 6.097656 -14.789062 5.59375 -14.867188 5.28125 -14.921875 L 6.296875 -12.40625 C 6.503906 -12.425781 6.863281 -12.472656 7.375 -12.546875 C 7.894531 -12.628906 8.40625 -12.671875 8.90625 -12.671875 L 13.953125 -12.671875 L 12.5625 2.453125 L 5.015625 2.453125 C 4.597656 2.453125 4.050781 2.40625 3.375 2.3125 C 2.707031 2.21875 2.21875 2.144531 1.90625 2.09375 L 2.921875 4.546875 C 3.046875 4.523438 3.34375 4.476562 3.8125 4.40625 C 4.28125 4.34375 4.757812 4.3125 5.25 4.3125 L 37.171875 4.3125 C 37.679688 4.3125 38.035156 4.101562 38.234375 3.6875 C 38.429688 3.28125 38.191406 2.710938 37.515625 1.984375 Z M 25.625 2.453125 L 17.921875 2.453125 L 19.328125 -12.671875 L 25.625 -12.671875 Z M 25.625 2.453125 "/></g></g></g><g fill="#ee2c27" fill-opacity="1"><g transform="translate(14.601476, 124.26184)"><g><path d="M 36.03125 -28.5 C 35.363281 -29.09375 34.6875 -29.585938 34 -29.984375 C 33.3125 -30.390625 32.703125 -30.625 32.171875 -30.6875 C 31.640625 -30.757812 31.253906 -30.546875 31.015625 -30.046875 L 30.203125 -27.953125 L 21.1875 -27.953125 C 21.0625 -27.953125 20.800781 -27.96875 20.40625 -28 C 20.019531 -28.039062 19.625 -28.085938 19.21875 -28.140625 C 18.820312 -28.191406 18.519531 -28.234375 18.3125 -28.265625 L 19.046875 -25.8125 C 19.253906 -25.863281 19.625 -25.914062 20.15625 -25.96875 C 20.6875 -26.019531 21.054688 -26.046875 21.265625 -26.046875 L 35.6875 -26.046875 C 36.519531 -26.046875 36.976562 -26.289062 37.0625 -26.78125 C 37.15625 -27.28125 36.8125 -27.851562 36.03125 -28.5 Z M 16.828125 -28.5 C 15.867188 -29.351562 15.023438 -29.976562 14.296875 -30.375 C 13.578125 -30.78125 13.0625 -30.632812 12.75 -29.9375 L 11.890625 -27.953125 L 5.046875 -27.953125 C 4.847656 -27.953125 4.460938 -27.992188 3.890625 -28.078125 C 3.316406 -28.171875 2.890625 -28.234375 2.609375 -28.265625 L 3.296875 -25.859375 L 5.09375 -26.046875 L 16.4375 -26.046875 C 17.113281 -26.046875 17.535156 -26.289062 17.703125 -26.78125 C 17.867188 -27.28125 17.578125 -27.851562 16.828125 -28.5 Z M 35.53125 -11.734375 L 35.53125 -19.359375 C 35.53125 -19.460938 35.625 -19.570312 35.8125 -19.6875 C 36.007812 -19.800781 36.207031 -19.941406 36.40625 -20.109375 C 36.601562 -20.285156 36.710938 -20.507812 36.734375 -20.78125 C 36.765625 -21.050781 36.625 -21.367188 36.3125 -21.734375 C 36 -22.097656 35.425781 -22.535156 34.59375 -23.046875 C 33.40625 -23.804688 32.5 -24.269531 31.875 -24.4375 C 31.25 -24.601562 30.835938 -24.453125 30.640625 -23.984375 L 29.78125 -22.15625 L 25.890625 -22.15625 C 25.835938 -22.1875 25.601562 -22.269531 25.1875 -22.40625 C 24.769531 -22.550781 24.253906 -22.710938 23.640625 -22.890625 C 23.035156 -23.078125 22.429688 -23.238281 21.828125 -23.375 C 21.222656 -23.519531 20.710938 -23.609375 20.296875 -23.640625 L 20.296875 -11.34375 C 20.296875 -10.9375 20.472656 -10.632812 20.828125 -10.4375 C 21.191406 -10.238281 21.644531 -10.125 22.1875 -10.09375 C 22.738281 -10.070312 23.289062 -10.113281 23.84375 -10.21875 C 24.40625 -10.320312 24.867188 -10.476562 25.234375 -10.6875 C 25.597656 -10.894531 25.78125 -11.128906 25.78125 -11.390625 L 25.78125 -11.96875 L 30.015625 -11.96875 L 30.015625 -11.5 C 30.015625 -11.144531 30.203125 -10.867188 30.578125 -10.671875 C 30.953125 -10.472656 31.410156 -10.351562 31.953125 -10.3125 C 32.492188 -10.28125 33.035156 -10.316406 33.578125 -10.421875 C 34.128906 -10.523438 34.59375 -10.6875 34.96875 -10.90625 C 35.34375 -11.125 35.53125 -11.398438 35.53125 -11.734375 Z M 17.734375 -22.203125 C 16.765625 -23.054688 15.941406 -23.660156 15.265625 -24.015625 C 14.597656 -24.378906 14.125 -24.226562 13.84375 -23.5625 L 13.015625 -21.609375 L 3.34375 -21.609375 C 3.21875 -21.609375 2.988281 -21.628906 2.65625 -21.671875 C 2.332031 -21.710938 2.003906 -21.757812 1.671875 -21.8125 C 1.335938 -21.863281 1.078125 -21.898438 0.890625 -21.921875 L 1.59375 -19.4375 C 1.800781 -19.488281 2.117188 -19.539062 2.546875 -19.59375 C 2.972656 -19.644531 3.289062 -19.671875 3.5 -19.671875 L 7.546875 -19.671875 L 7.546875 -15.78125 C 7.304688 -15.96875 7.117188 -16.082031 6.984375 -16.125 C 6.859375 -16.175781 6.707031 -16.21875 6.53125 -16.25 L 2.6875 -16.796875 C 2.894531 -13.035156 2.800781 -9.757812 2.40625 -6.96875 C 2.019531 -4.1875 1.59375 -2.109375 1.125 -0.734375 C 0.945312 -0.117188 0.96875 0.269531 1.1875 0.4375 C 1.40625 0.613281 1.703125 0.628906 2.078125 0.484375 C 2.453125 0.335938 2.742188 0.140625 2.953125 -0.109375 C 3.160156 -0.347656 3.472656 -0.828125 3.890625 -1.546875 C 4.304688 -2.273438 4.742188 -3.242188 5.203125 -4.453125 C 5.671875 -5.660156 6.078125 -7.070312 6.421875 -8.6875 C 6.773438 -10.3125 6.992188 -12.132812 7.078125 -14.15625 C 7.097656 -14.226562 7.128906 -14.316406 7.171875 -14.421875 C 7.210938 -14.523438 7.335938 -14.71875 7.546875 -15 L 7.546875 5.359375 C 7.546875 5.960938 7.773438 6.382812 8.234375 6.625 C 8.703125 6.875 9.238281 6.960938 9.84375 6.890625 C 10.457031 6.828125 11 6.632812 11.46875 6.3125 C 11.9375 5.988281 12.171875 5.566406 12.171875 5.046875 L 12.171875 -19.671875 L 17.375 -19.671875 C 18.050781 -19.671875 18.476562 -19.921875 18.65625 -20.421875 C 18.84375 -20.929688 18.535156 -21.523438 17.734375 -22.203125 Z M 17.5 -1.90625 L 17.5 -13.453125 C 17.5 -13.765625 17.59375 -14.046875 17.78125 -14.296875 C 17.976562 -14.554688 18.140625 -14.8125 18.265625 -15.0625 C 18.398438 -15.3125 18.394531 -15.546875 18.25 -15.765625 C 18.101562 -15.984375 17.695312 -16.195312 17.03125 -16.40625 C 16.71875 -16.476562 16.320312 -16.5625 15.84375 -16.65625 C 15.363281 -16.75 14.910156 -16.828125 14.484375 -16.890625 C 14.054688 -16.953125 13.738281 -16.984375 13.53125 -16.984375 L 13.53125 -1.015625 C 13.53125 -0.515625 13.726562 -0.15625 14.125 0.0625 C 14.53125 0.28125 14.988281 0.34375 15.5 0.25 C 16.019531 0.15625 16.484375 -0.0664062 16.890625 -0.421875 C 17.296875 -0.785156 17.5 -1.28125 17.5 -1.90625 Z M 36.96875 5.359375 L 36.96875 -4.890625 C 36.96875 -5.046875 37.082031 -5.203125 37.3125 -5.359375 C 37.550781 -5.515625 37.753906 -5.703125 37.921875 -5.921875 C 38.085938 -6.148438 38.078125 -6.429688 37.890625 -6.765625 C 37.710938 -7.097656 37.210938 -7.515625 36.390625 -8.015625 C 35.992188 -8.265625 35.523438 -8.546875 34.984375 -8.859375 C 34.441406 -9.171875 33.929688 -9.378906 33.453125 -9.484375 C 32.972656 -9.585938 32.628906 -9.445312 32.421875 -9.0625 L 31.6875 -7.65625 L 23.671875 -7.65625 C 23.617188 -7.65625 23.390625 -7.71875 22.984375 -7.84375 C 22.585938 -7.976562 22.101562 -8.125 21.53125 -8.28125 C 20.96875 -8.4375 20.410156 -8.578125 19.859375 -8.703125 C 19.316406 -8.835938 18.890625 -8.914062 18.578125 -8.9375 L 18.578125 5.671875 C 18.578125 6.117188 18.835938 6.429688 19.359375 6.609375 C 19.878906 6.785156 20.46875 6.851562 21.125 6.8125 C 21.789062 6.78125 22.378906 6.660156 22.890625 6.453125 C 23.410156 6.242188 23.671875 5.984375 23.671875 5.671875 L 23.671875 5.25 L 31.875 5.25 L 31.875 5.640625 C 31.875 6.003906 32.132812 6.25 32.65625 6.375 C 33.175781 6.5 33.765625 6.535156 34.421875 6.484375 C 35.085938 6.441406 35.675781 6.320312 36.1875 6.125 C 36.707031 5.925781 36.96875 5.671875 36.96875 5.359375 Z M 30.015625 -13.875 L 25.78125 -13.875 L 25.78125 -20.140625 L 30.015625 -20.140625 Z M 31.875 -2.0625 L 30.046875 -2.0625 L 30.046875 -6.0625 L 31.875 -6.0625 Z M 25.546875 -2.0625 L 23.671875 -2.0625 L 23.671875 -6.0625 L 25.546875 -6.0625 Z M 31.875 3.453125 L 30.046875 3.453125 L 30.046875 -0.390625 L 31.875 -0.390625 Z M 25.546875 3.453125 L 23.671875 3.453125 L 23.671875 -0.390625 L 25.546875 -0.390625 Z M 25.546875 3.453125 "/></g></g></g><g fill="#32325f" fill-opacity="1"><g transform="translate(160.436675, 124.292527)"><g><path d="M 39.171875 -27.6875 L 40.328125 -27.796875 L 51.8125 -28.859375 C 59.175781 -29.484375 64.6875 -29.9375 68.34375 -30.21875 C 74.519531 -30.644531 79.289062 -30.785156 82.65625 -30.640625 C 83.988281 -30.640625 85.359375 -30.601562 86.765625 -30.53125 C 87.535156 -30.394531 88.585938 -30.253906 89.921875 -30.109375 C 91.679688 -29.828125 92.875 -29.722656 93.5 -29.796875 C 94.5625 -29.941406 95.546875 -30.398438 96.453125 -31.171875 C 98.140625 -32.859375 98.492188 -34.648438 97.515625 -36.546875 C 96.390625 -38.785156 93.648438 -40.1875 89.296875 -40.75 C 87.609375 -40.957031 86.171875 -40.992188 84.984375 -40.859375 C 84.273438 -40.710938 83.289062 -40.394531 82.03125 -39.90625 C 80.414062 -39.34375 79.007812 -38.921875 77.8125 -38.640625 C 75.78125 -38.148438 73.328125 -37.800781 70.453125 -37.59375 C 70.734375 -40.46875 70.414062 -42.675781 69.5 -44.21875 C 68.9375 -45.28125 67.601562 -46.617188 65.5 -48.234375 L 69.390625 -48.328125 C 73.671875 -48.328125 76.335938 -48.609375 77.390625 -49.171875 C 79.078125 -50.015625 79.394531 -51.910156 78.34375 -54.859375 C 78.550781 -55.773438 78.796875 -56.582031 79.078125 -57.28125 C 79.222656 -57.707031 79.4375 -58.269531 79.71875 -58.96875 C 80.34375 -60.445312 80.726562 -61.851562 80.875 -63.1875 C 81.082031 -65.007812 81.113281 -68.34375 80.96875 -73.1875 L 81.296875 -74.875 C 81.710938 -76.625 81.882812 -77.921875 81.8125 -78.765625 C 81.601562 -80.234375 80.832031 -81.640625 79.5 -82.984375 C 77.320312 -84.867188 75.144531 -86.203125 72.96875 -86.984375 C 70.726562 -87.679688 69.046875 -87.609375 67.921875 -86.765625 C 66.867188 -86.066406 66.484375 -85.117188 66.765625 -83.921875 C 66.898438 -83.222656 67.492188 -82.066406 68.546875 -80.453125 C 69.253906 -79.328125 69.75 -78.484375 70.03125 -77.921875 C 70.445312 -76.941406 70.726562 -76.03125 70.875 -75.1875 L 71.28125 -69.8125 C 71.5 -67.425781 71.640625 -65.566406 71.703125 -64.234375 C 71.773438 -62.054688 71.773438 -59.738281 71.703125 -57.28125 C 69.179688 -56.4375 66.164062 -55.734375 62.65625 -55.171875 C 58.9375 -54.546875 55.53125 -54.234375 52.4375 -54.234375 C 52.226562 -55.210938 52.085938 -56.546875 52.015625 -58.234375 L 52.015625 -62.546875 L 52.125 -65.078125 C 53.320312 -65.003906 55.285156 -65.039062 58.015625 -65.1875 C 60.753906 -65.394531 62.894531 -65.640625 64.4375 -65.921875 C 66.757812 -66.765625 67.566406 -68.238281 66.859375 -70.34375 C 66.234375 -72.375 64.757812 -73.742188 62.4375 -74.453125 C 60.96875 -74.660156 59.707031 -74.660156 58.65625 -74.453125 C 58.09375 -74.304688 57.320312 -74.023438 56.34375 -73.609375 C 55.5 -73.179688 54.828125 -72.898438 54.328125 -72.765625 C 53.421875 -72.554688 52.441406 -72.453125 51.390625 -72.453125 C 50.617188 -74.972656 48.226562 -77.039062 44.21875 -78.65625 C 40.289062 -80.34375 37.3125 -80.519531 35.28125 -79.1875 C 34.363281 -78.34375 34.222656 -77.359375 34.859375 -76.234375 C 35.203125 -75.535156 36.113281 -74.445312 37.59375 -72.96875 C 38.4375 -72.125 39.03125 -71.492188 39.375 -71.078125 C 39.9375 -70.378906 40.359375 -69.75 40.640625 -69.1875 C 41.347656 -67.351562 41.984375 -65.210938 42.546875 -62.765625 C 42.828125 -61.359375 43.210938 -59.039062 43.703125 -55.8125 L 44.859375 -49.171875 C 45.210938 -46.367188 46.085938 -45 47.484375 -45.0625 C 48.753906 -45.207031 50.335938 -46.472656 52.234375 -48.859375 C 53.003906 -48.503906 53.8125 -48.257812 54.65625 -48.125 C 55.144531 -48.050781 55.914062 -47.976562 56.96875 -47.90625 L 57.5 -47.8125 C 56.863281 -46.894531 56.753906 -45.875 57.171875 -44.75 C 57.453125 -44.125 58.050781 -43.140625 58.96875 -41.796875 C 59.8125 -40.679688 60.375 -39.84375 60.65625 -39.28125 C 61.070312 -38.289062 61.175781 -37.378906 60.96875 -36.546875 C 55.351562 -35.910156 48.15625 -35.59375 39.375 -35.59375 C 34.46875 -35.664062 27.976562 -35.84375 19.90625 -36.125 L 16.21875 -36.21875 C 14.738281 -36.363281 13.578125 -36.222656 12.734375 -35.796875 C 11.828125 -35.304688 11.410156 -34.675781 11.484375 -33.90625 C 11.546875 -32.925781 12.316406 -31.875 13.796875 -30.75 C 15.410156 -29.414062 17.796875 -27.976562 20.953125 -26.4375 C 23.054688 -25.59375 24.882812 -25.171875 26.4375 -25.171875 C 27.488281 -25.234375 29.066406 -25.546875 31.171875 -26.109375 C 32.503906 -26.460938 33.625 -26.742188 34.53125 -26.953125 C 36.007812 -27.304688 37.554688 -27.550781 39.171875 -27.6875 Z M 62.96875 -23.90625 C 68.09375 -23.90625 72.445312 -22.078125 76.03125 -18.421875 C 79.320312 -14.984375 80.96875 -11.195312 80.96875 -7.0625 C 80.96875 -2.488281 79.425781 1.375 76.34375 4.53125 C 73.039062 8.101562 68.582031 9.890625 62.96875 9.890625 C 58.40625 9.890625 54.160156 8.101562 50.234375 4.53125 C 46.296875 1.019531 44.328125 -2.84375 44.328125 -7.0625 C 44.328125 -11.6875 45.800781 -15.546875 48.75 -18.640625 C 52.195312 -22.148438 56.9375 -23.90625 62.96875 -23.90625 Z M 63.390625 -15.15625 C 60.234375 -15.15625 57.53125 -14.347656 55.28125 -12.734375 C 53.25 -11.191406 52.234375 -9.398438 52.234375 -7.359375 C 52.234375 -5.328125 53.25 -3.578125 55.28125 -2.109375 C 57.457031 -0.492188 60.160156 0.3125 63.390625 0.3125 C 66.765625 0.3125 69.222656 -0.492188 70.765625 -2.109375 C 72.023438 -3.367188 72.65625 -5.125 72.65625 -7.375 C 72.65625 -9.269531 71.921875 -10.953125 70.453125 -12.421875 C 68.691406 -14.242188 66.335938 -15.15625 63.390625 -15.15625 Z M 63.390625 -15.15625 "/></g></g></g><g fill="#32325f" fill-opacity="1"><g transform="translate(264.57559, 124.292527)"><g><path d="M 72.765625 -76.234375 L 72.875 -75.71875 C 72.875 -68.550781 73.046875 -61.84375 73.390625 -55.59375 C 73.597656 -52.082031 73.953125 -47.875 74.453125 -42.96875 C 74.734375 -39.519531 74.875 -37.203125 74.875 -36.015625 C 74.9375 -34.253906 74.757812 -32.847656 74.34375 -31.796875 C 69.707031 -33.410156 67.320312 -33.34375 67.1875 -31.59375 C 67.113281 -30.539062 68.203125 -28.046875 70.453125 -24.109375 L 71.921875 -21.59375 C 71.773438 -18.363281 71.738281 -15.304688 71.8125 -12.421875 C 71.882812 -10.734375 72.023438 -8.628906 72.234375 -6.109375 C 72.304688 -4.566406 72.378906 -3.441406 72.453125 -2.734375 L 72.453125 0.421875 C 70.554688 1.617188 67.675781 2.566406 63.8125 3.265625 C 60.019531 3.960938 56.507812 4.207031 53.28125 4 C 53.144531 1.96875 53.039062 -0.03125 52.96875 -2 C 52.96875 -4.3125 53.003906 -7.050781 53.078125 -10.21875 C 53.984375 -10.144531 54.820312 -10.035156 55.59375 -9.890625 C 56.09375 -9.828125 56.691406 -9.722656 57.390625 -9.578125 C 58.722656 -9.234375 59.878906 -9.128906 60.859375 -9.265625 C 62.265625 -9.410156 64.546875 -9.972656 67.703125 -10.953125 C 69.179688 -11.515625 70.023438 -12.285156 70.234375 -13.265625 C 70.378906 -14.109375 70.0625 -15.054688 69.28125 -16.109375 C 68.582031 -17.085938 67.671875 -17.894531 66.546875 -18.53125 C 65.359375 -19.164062 64.304688 -19.378906 63.390625 -19.171875 C 62.472656 -19.097656 61.628906 -18.882812 60.859375 -18.53125 C 60.367188 -18.320312 59.703125 -17.972656 58.859375 -17.484375 C 57.878906 -16.847656 57.070312 -16.390625 56.4375 -16.109375 C 55.3125 -15.691406 54.082031 -15.375 52.75 -15.15625 C 53.101562 -18.457031 51.207031 -21.410156 47.0625 -24.015625 C 43.0625 -26.609375 39.585938 -27.304688 36.640625 -26.109375 C 35.097656 -25.484375 34.570312 -24.503906 35.0625 -23.171875 C 35.34375 -22.398438 36.289062 -21.097656 37.90625 -19.265625 C 38.957031 -18.078125 39.695312 -17.164062 40.125 -16.53125 C 40.894531 -15.550781 41.382812 -14.640625 41.59375 -13.796875 C 42.007812 -11.054688 42.394531 -8.421875 42.75 -5.890625 C 42.957031 -4.347656 43.203125 -2.316406 43.484375 0.203125 L 44.4375 8 C 45.207031 11.9375 46.472656 13.796875 48.234375 13.578125 C 49.628906 13.367188 51.242188 11.6875 53.078125 8.53125 C 53.984375 8.664062 54.820312 8.875 55.59375 9.15625 C 56.09375 9.300781 56.691406 9.515625 57.390625 9.796875 C 59.003906 10.421875 60.476562 10.769531 61.8125 10.84375 C 63.84375 10.988281 67.25 10.78125 72.03125 10.21875 C 75.601562 10.707031 78.269531 10.351562 80.03125 9.15625 C 82.34375 7.6875 81.847656 5.09375 78.546875 1.375 L 78.65625 1.046875 C 79.988281 -1.472656 80.898438 -3.753906 81.390625 -5.796875 C 82.234375 -9.234375 82.585938 -13.65625 82.453125 -19.0625 L 82.875 -21.6875 C 83.363281 -23.863281 83.328125 -25.410156 82.765625 -26.328125 C 81.992188 -27.515625 79.644531 -29.234375 75.71875 -31.484375 C 75.988281 -32.609375 76.441406 -33.660156 77.078125 -34.640625 C 77.503906 -35.273438 78.132812 -36.117188 78.96875 -37.171875 C 80.800781 -39.628906 82.101562 -41.84375 82.875 -43.8125 C 84.132812 -47.25 84.800781 -51.773438 84.875 -57.390625 L 84.875 -75.078125 C 84.875 -75.640625 84.910156 -76.238281 84.984375 -76.875 C 84.984375 -77.21875 85.050781 -77.707031 85.1875 -78.34375 C 85.394531 -79.601562 85.46875 -80.515625 85.40625 -81.078125 C 85.1875 -81.992188 84.550781 -82.875 83.5 -83.71875 C 79.851562 -86.3125 76.453125 -88.171875 73.296875 -89.296875 C 70.617188 -90.273438 68.332031 -90.734375 66.4375 -90.671875 C 64.820312 -90.523438 63.769531 -90.066406 63.28125 -89.296875 C 62.789062 -88.585938 63.035156 -87.847656 64.015625 -87.078125 C 66.546875 -84.898438 68.582031 -82.898438 70.125 -81.078125 C 71.738281 -79.117188 72.617188 -77.503906 72.765625 -76.234375 Z M 36.546875 -65.8125 L 37.0625 -65.28125 C 38.1875 -64.300781 37.90625 -62.265625 36.21875 -59.171875 C 34.75 -56.367188 32.46875 -53.140625 29.375 -49.484375 C 26.351562 -46.117188 23.367188 -43.171875 20.421875 -40.640625 C 17.335938 -37.972656 15.128906 -36.570312 13.796875 -36.4375 C 9.722656 -36.570312 7.648438 -36.148438 7.578125 -35.171875 C 7.503906 -34.253906 9.539062 -34.039062 13.6875 -34.53125 C 18.113281 -35.238281 22.75 -36.851562 27.59375 -39.375 C 32.71875 -42.113281 37.523438 -45.625 42.015625 -49.90625 C 43.347656 -49.070312 44.679688 -47.878906 46.015625 -46.328125 C 46.859375 -45.421875 48.015625 -44.019531 49.484375 -42.125 C 50.753906 -40.507812 51.703125 -39.347656 52.328125 -38.640625 C 53.390625 -37.453125 54.410156 -36.578125 55.390625 -36.015625 C 56.160156 -35.523438 56.96875 -35.453125 57.8125 -35.796875 C 58.71875 -36.148438 59.488281 -36.785156 60.125 -37.703125 C 60.757812 -38.753906 61.113281 -39.984375 61.1875 -41.390625 C 61.25 -42.929688 60.96875 -44.546875 60.34375 -46.234375 C 59.5 -48.054688 58.476562 -49.316406 57.28125 -50.015625 C 56.4375 -50.503906 54.960938 -50.960938 52.859375 -51.390625 C 51.453125 -51.734375 50.363281 -52.015625 49.59375 -52.234375 C 48.125 -52.648438 46.753906 -53.140625 45.484375 -53.703125 L 47.171875 -55.8125 C 48.785156 -57.707031 49.453125 -59.179688 49.171875 -60.234375 C 48.679688 -61.847656 46.257812 -64.128906 41.90625 -67.078125 C 44.007812 -67.285156 46.007812 -67.351562 47.90625 -67.28125 C 49.03125 -67.28125 50.363281 -67.210938 51.90625 -67.078125 C 53.519531 -66.867188 54.644531 -66.832031 55.28125 -66.96875 C 56.257812 -67.113281 57.242188 -67.535156 58.234375 -68.234375 C 59.847656 -69.847656 60.023438 -71.707031 58.765625 -73.8125 C 57.285156 -76.132812 54.40625 -77.363281 50.125 -77.5 C 49.144531 -77.5 48.300781 -77.394531 47.59375 -77.1875 C 47.101562 -76.976562 46.472656 -76.625 45.703125 -76.125 C 43.734375 -74.9375 41.519531 -74.097656 39.0625 -73.609375 C 34.78125 -72.835938 28.460938 -72.59375 20.109375 -72.875 C 17.929688 -73.15625 16.597656 -72.625 16.109375 -71.28125 C 15.546875 -69.945312 16.566406 -68.441406 19.171875 -66.765625 C 22.535156 -64.867188 24.988281 -63.816406 26.53125 -63.609375 C 27.582031 -63.390625 29.09375 -63.632812 31.0625 -64.34375 C 31.976562 -64.6875 32.75 -64.929688 33.375 -65.078125 C 34.363281 -65.359375 35.421875 -65.601562 36.546875 -65.8125 Z M 36.546875 -65.8125 "/></g></g></g></svg>