<svg xmlns="http://www.w3.org/2000/svg" width="26" height="26" viewBox="0 0 26 26">
  <g id="slide-ligin-r" transform="translate(-1739.6 -64)">
    <g id="사각형_63" data-name="사각형 63" transform="translate(1739.6 64)" fill="rgba(255,255,255,0.1)" stroke="#454565" stroke-width="2">
      <rect width="26" height="26" rx="13" stroke="none"/>
      <rect x="1" y="1" width="24" height="24" rx="12" fill="none"/>
    </g>
    <path id="acco01" d="M218.3-722.919a2.446,2.446,0,0,1-1.794-.746,2.446,2.446,0,0,1-.746-1.794,2.446,2.446,0,0,1,.746-1.794A2.446,2.446,0,0,1,218.3-728a2.447,2.447,0,0,1,1.794.746,2.447,2.447,0,0,1,.746,1.794,2.447,2.447,0,0,1-.746,1.794A2.447,2.447,0,0,1,218.3-722.919Zm-6.3,6.586v-1.223a1.685,1.685,0,0,1,.318-.976,2.145,2.145,0,0,1,.859-.717,13.178,13.178,0,0,1,2.576-.917,10.967,10.967,0,0,1,2.552-.306,10.967,10.967,0,0,1,2.552.306,13.178,13.178,0,0,1,2.576.917,2.145,2.145,0,0,1,.859.717,1.685,1.685,0,0,1,.318.976v1.223Z" transform="translate(1534.6 799)" fill="#fff" opacity="0.4"/>
  </g>
</svg>
