<svg xmlns="http://www.w3.org/2000/svg" width="11.138" height="14.337" viewBox="0 0 11.138 14.337">
  <path id="slide-notice" d="M-5954.85-1937.19a1.751,1.751,0,0,1-.534-1.28h3.624a1.747,1.747,0,0,1-.533,1.28,1.743,1.743,0,0,1-1.278.531,1.743,1.743,0,0,1-1.279-.531Zm-4.155-2.7v-.667h1.393v-4.872a4.072,4.072,0,0,1,.87-2.566,4.022,4.022,0,0,1,2.262-1.47v-.487a1,1,0,0,1,.305-.739,1.009,1.009,0,0,1,.74-.3,1,1,0,0,1,.739.3,1,1,0,0,1,.305.739v.487a4.016,4.016,0,0,1,2.261,1.47,4.075,4.075,0,0,1,.871,2.566v4.872h1.392v.667Z" transform="translate(5959.005 1950.996)" fill="rgba(255,255,255,0.5)"/>
</svg>
