<svg xmlns="http://www.w3.org/2000/svg" width="66" height="53" viewBox="0 0 66 53">
  <g id="stock-img02" transform="translate(-5401 -2071)">
    <g id="그룹_109" data-name="그룹 109" transform="translate(-6 -4)">
      <g id="사각형_89" data-name="사각형 89" transform="translate(5420 2075)" fill="#a0a0a0" stroke="#a0a0a0" stroke-width="2">
        <rect width="53" height="43" rx="2" stroke="none"/>
        <rect x="1" y="1" width="51" height="41" rx="1" fill="none"/>
      </g>
      <g id="합치기_1" data-name="합치기 1" transform="translate(5800 2257)" fill="#fff">
        <path d="M -349.0002136230469 -174.4997100830078 C -349.27587890625 -174.4997100830078 -349.5001220703125 -174.7239685058594 -349.5001220703125 -174.9996032714844 C -349.5001220703125 -175.2757415771484 -349.27587890625 -175.5003967285156 -349.0002136230469 -175.5003967285156 C -348.7245788574219 -175.5003967285156 -348.5003051757812 -175.2757415771484 -348.5003051757812 -174.9996032714844 C -348.5003051757812 -174.7239685058594 -348.7245788574219 -174.4997100830078 -349.0002136230469 -174.4997100830078 Z M -352.9998168945312 -174.4997100830078 C -353.2754516601562 -174.4997100830078 -353.4996948242188 -174.7239685058594 -353.4996948242188 -174.9996032714844 C -353.4996948242188 -175.2757415771484 -353.2754516601562 -175.5003967285156 -352.9998168945312 -175.5003967285156 C -352.7241516113281 -175.5003967285156 -352.4999084472656 -175.2757415771484 -352.4999084472656 -174.9996032714844 C -352.4999084472656 -174.7239685058594 -352.7241516113281 -174.4997100830078 -352.9998168945312 -174.4997100830078 Z M -357.0003051757812 -174.4997100830078 C -357.2759399414062 -174.4997100830078 -357.5002136230469 -174.7239685058594 -357.5002136230469 -174.9996032714844 C -357.5002136230469 -175.2757415771484 -357.2759399414062 -175.5003967285156 -357.0003051757812 -175.5003967285156 C -356.7246398925781 -175.5003967285156 -356.5003967285156 -175.2757415771484 -356.5003967285156 -174.9996032714844 C -356.5003967285156 -174.7239685058594 -356.7246398925781 -174.4997100830078 -357.0003051757812 -174.4997100830078 Z" stroke="none"/>
        <path d="M -349.0002136230469 -173.9997100830078 C -349.5519104003906 -173.9997100830078 -350.0001220703125 -174.4479064941406 -350.0001220703125 -174.9996032714844 C -350.0001220703125 -175.5522003173828 -349.5519104003906 -176.0003967285156 -349.0002136230469 -176.0003967285156 C -348.4476013183594 -176.0003967285156 -348.0003051757812 -175.5522003173828 -348.0003051757812 -174.9996032714844 C -348.0003051757812 -174.4479064941406 -348.4476013183594 -173.9997100830078 -349.0002136230469 -173.9997100830078 Z M -352.9998168945312 -173.9997100830078 C -353.5523986816406 -173.9997100830078 -353.9996948242188 -174.4479064941406 -353.9996948242188 -174.9996032714844 C -353.9996948242188 -175.5522003173828 -353.5523986816406 -176.0003967285156 -352.9998168945312 -176.0003967285156 C -352.4481201171875 -176.0003967285156 -351.9999084472656 -175.5522003173828 -351.9999084472656 -174.9996032714844 C -351.9999084472656 -174.4479064941406 -352.4481201171875 -173.9997100830078 -352.9998168945312 -173.9997100830078 Z M -357.0003051757812 -173.9997100830078 C -357.552001953125 -173.9997100830078 -358.0002136230469 -174.4479064941406 -358.0002136230469 -174.9996032714844 C -358.0002136230469 -175.5522003173828 -357.552001953125 -176.0003967285156 -357.0003051757812 -176.0003967285156 C -356.4477233886719 -176.0003967285156 -356.0003967285156 -175.5522003173828 -356.0003967285156 -174.9996032714844 C -356.0003967285156 -174.4479064941406 -356.4477233886719 -173.9997100830078 -357.0003051757812 -173.9997100830078 Z" stroke="none" fill="#000"/>
      </g>
    </g>
    <g id="그룹_108" data-name="그룹 108">
      <g id="사각형_85" data-name="사각형 85" transform="translate(5401 2077)" fill="#fff" stroke="#000" stroke-width="2">
        <rect width="56" height="47" rx="3" stroke="none"/>
        <rect x="1" y="1" width="54" height="45" rx="2" fill="none"/>
      </g>
      <line id="선_1" data-name="선 1" x2="55.108" transform="translate(5401.392 2085.76)" fill="none" stroke="#000" stroke-width="2"/>
      <g id="합치기_1-2" data-name="합치기 1" transform="translate(5800 2257)" fill="#fff">
        <path d="M -349.0002136230469 -174.4997100830078 C -349.27587890625 -174.4997100830078 -349.5001220703125 -174.7239685058594 -349.5001220703125 -174.9996032714844 C -349.5001220703125 -175.2757415771484 -349.27587890625 -175.5003967285156 -349.0002136230469 -175.5003967285156 C -348.7245788574219 -175.5003967285156 -348.5003051757812 -175.2757415771484 -348.5003051757812 -174.9996032714844 C -348.5003051757812 -174.7239685058594 -348.7245788574219 -174.4997100830078 -349.0002136230469 -174.4997100830078 Z M -352.9998168945312 -174.4997100830078 C -353.2754516601562 -174.4997100830078 -353.4996948242188 -174.7239685058594 -353.4996948242188 -174.9996032714844 C -353.4996948242188 -175.2757415771484 -353.2754516601562 -175.5003967285156 -352.9998168945312 -175.5003967285156 C -352.7241516113281 -175.5003967285156 -352.4999084472656 -175.2757415771484 -352.4999084472656 -174.9996032714844 C -352.4999084472656 -174.7239685058594 -352.7241516113281 -174.4997100830078 -352.9998168945312 -174.4997100830078 Z M -357.0003051757812 -174.4997100830078 C -357.2759399414062 -174.4997100830078 -357.5002136230469 -174.7239685058594 -357.5002136230469 -174.9996032714844 C -357.5002136230469 -175.2757415771484 -357.2759399414062 -175.5003967285156 -357.0003051757812 -175.5003967285156 C -356.7246398925781 -175.5003967285156 -356.5003967285156 -175.2757415771484 -356.5003967285156 -174.9996032714844 C -356.5003967285156 -174.7239685058594 -356.7246398925781 -174.4997100830078 -357.0003051757812 -174.4997100830078 Z" stroke="none"/>
        <path d="M -349.0002136230469 -173.9997100830078 C -349.5519104003906 -173.9997100830078 -350.0001220703125 -174.4479064941406 -350.0001220703125 -174.9996032714844 C -350.0001220703125 -175.5522003173828 -349.5519104003906 -176.0003967285156 -349.0002136230469 -176.0003967285156 C -348.4476013183594 -176.0003967285156 -348.0003051757812 -175.5522003173828 -348.0003051757812 -174.9996032714844 C -348.0003051757812 -174.4479064941406 -348.4476013183594 -173.9997100830078 -349.0002136230469 -173.9997100830078 Z M -352.9998168945312 -173.9997100830078 C -353.5523986816406 -173.9997100830078 -353.9996948242188 -174.4479064941406 -353.9996948242188 -174.9996032714844 C -353.9996948242188 -175.5522003173828 -353.5523986816406 -176.0003967285156 -352.9998168945312 -176.0003967285156 C -352.4481201171875 -176.0003967285156 -351.9999084472656 -175.5522003173828 -351.9999084472656 -174.9996032714844 C -351.9999084472656 -174.4479064941406 -352.4481201171875 -173.9997100830078 -352.9998168945312 -173.9997100830078 Z M -357.0003051757812 -173.9997100830078 C -357.552001953125 -173.9997100830078 -358.0002136230469 -174.4479064941406 -358.0002136230469 -174.9996032714844 C -358.0002136230469 -175.5522003173828 -357.552001953125 -176.0003967285156 -357.0003051757812 -176.0003967285156 C -356.4477233886719 -176.0003967285156 -356.0003967285156 -175.5522003173828 -356.0003967285156 -174.9996032714844 C -356.0003967285156 -174.4479064941406 -356.4477233886719 -173.9997100830078 -357.0003051757812 -173.9997100830078 Z" stroke="none" fill="#000"/>
      </g>
    </g>
    <rect id="사각형_86" data-name="사각형 86" width="7" height="22" rx="3.5" transform="translate(5436 2093)"/>
    <rect id="사각형_87" data-name="사각형 87" width="7" height="20" rx="3.5" transform="translate(5425 2095)"/>
    <rect id="사각형_88" data-name="사각형 88" width="7" height="13" rx="3.5" transform="translate(5414 2102)"/>
  </g>
</svg>
