<svg xmlns="http://www.w3.org/2000/svg" width="46.792" height="51.991" viewBox="0 0 46.792 51.991">
  <path id="value-img04" d="M82.166-828.009V-829.5a5.14,5.14,0,0,1,.845-2.86,5.18,5.18,0,0,1,2.34-1.95,19.646,19.646,0,0,1,3.477-1.1,17.487,17.487,0,0,1,3.737-.39,17.487,17.487,0,0,1,3.737.39,19.647,19.647,0,0,1,3.477,1.1,5.18,5.18,0,0,1,2.34,1.95,5.14,5.14,0,0,1,.845,2.86v1.494Zm26,0V-829.5a5.14,5.14,0,0,1,.845-2.86,5.18,5.18,0,0,1,2.34-1.95,19.646,19.646,0,0,1,3.477-1.1,17.487,17.487,0,0,1,3.737-.39,17.487,17.487,0,0,1,3.737.39,19.648,19.648,0,0,1,3.477,1.1,5.18,5.18,0,0,1,2.34,1.95,5.14,5.14,0,0,1,.845,2.86v1.494Zm-15.6-10.4a5.006,5.006,0,0,1-3.672-1.527,5.006,5.006,0,0,1-1.527-3.672,5.007,5.007,0,0,1,1.527-3.672,5.006,5.006,0,0,1,3.672-1.527,5.006,5.006,0,0,1,3.672,1.527,5.007,5.007,0,0,1,1.527,3.672,5.006,5.006,0,0,1-1.527,3.672A5.006,5.006,0,0,1,92.564-838.407Zm26,0a5.006,5.006,0,0,1-3.672-1.527,5.006,5.006,0,0,1-1.527-3.672,5.007,5.007,0,0,1,1.527-3.672,5.006,5.006,0,0,1,3.672-1.527,5.006,5.006,0,0,1,3.672,1.527,5.007,5.007,0,0,1,1.527,3.672,5.006,5.006,0,0,1-1.527,3.672A5.006,5.006,0,0,1,118.56-838.407ZM107.512-851.08l1.755-1.755a1.99,1.99,0,0,1,1.365-.52,1.871,1.871,0,0,1,1.365.585,1.871,1.871,0,0,1,.585,1.365A1.871,1.871,0,0,1,112-850.04l-4.614,4.614a2.5,2.5,0,0,1-1.82.78,2.494,2.494,0,0,1-1.82-.78l-4.614-4.614a1.87,1.87,0,0,1-.585-1.365,1.871,1.871,0,0,1,.585-1.365,1.761,1.761,0,0,1,1.365-.552,2.133,2.133,0,0,1,1.365.552l1.755,1.69v-3.574a1.894,1.894,0,0,1,.552-1.4,1.9,1.9,0,0,1,1.4-.552,1.9,1.9,0,0,1,1.4.552,1.894,1.894,0,0,1,.552,1.4ZM95.164-859.2V-860.7a5.139,5.139,0,0,1,.845-2.859,5.18,5.18,0,0,1,2.34-1.95,19.647,19.647,0,0,1,3.477-1.1,17.491,17.491,0,0,1,3.737-.39,17.491,17.491,0,0,1,3.737.39,19.647,19.647,0,0,1,3.477,1.1,5.18,5.18,0,0,1,2.34,1.95,5.139,5.139,0,0,1,.845,2.859v1.495Zm10.4-10.4a5.007,5.007,0,0,1-3.672-1.527,5.006,5.006,0,0,1-1.527-3.672,5.006,5.006,0,0,1,1.527-3.672A5.007,5.007,0,0,1,105.562-880a5.007,5.007,0,0,1,3.672,1.527,5.006,5.006,0,0,1,1.527,3.672,5.006,5.006,0,0,1-1.527,3.672A5.007,5.007,0,0,1,105.562-869.6Z" transform="translate(-82.166 880)"/>
</svg>
