<svg xmlns="http://www.w3.org/2000/svg" width="37.889" height="44.497" viewBox="0 0 37.889 44.497">
  <g id="value-img02" transform="translate(-1293.503 -1209.503)">
    <path id="invoice-text-arrow-right" d="M3,42.993V3H40.888V24.765A12.646,12.646,0,0,0,24.049,36.679a12.019,12.019,0,0,0,.631,3.915l-2.736-1.81-6.315,4.21-6.315-4.21L3,42.993M32.469,15.629V11.42H11.42v4.21H32.469m-4.21,8.42v-4.21H11.42v4.21H28.259" transform="translate(1290.503 1206.503)"/>
    <path id="currency-usd" d="M7,15H9c0,1.08,1.37,2,3,2s3-.92,3-2c0-1.1-1.04-1.5-3.24-2.03C9.64,12.44,7,11.78,7,9a4.22,4.22,0,0,1,3.5-3.82V3h3V5.18A4.22,4.22,0,0,1,17,9H15c0-1.08-1.37-2-3-2S9,7.92,9,9c0,1.1,1.04,1.5,3.24,2.03C14.36,11.56,17,12.22,17,15a4.22,4.22,0,0,1-3.5,3.82V21h-3V18.82A4.22,4.22,0,0,1,7,15Z" transform="translate(1314 1233)"/>
  </g>
</svg>
