<svg xmlns="http://www.w3.org/2000/svg" width="56.797" height="49.017" viewBox="0 0 56.797 49.017">
  <g id="value-img01" transform="translate(-1061.391 -1203.764)">
    <path id="partner_exchange_24dp_5F6368_FILL1_wght400_GRAD0_opsz24" d="M42.582-818.562a2.5,2.5,0,0,1-1.839-.742A2.5,2.5,0,0,1,40-821.144v-7.745a4.941,4.941,0,0,1,1.517-3.679,5.027,5.027,0,0,1,3.647-1.485h8.455a4.975,4.975,0,0,1,2.453.646,5.2,5.2,0,0,1,1.872,1.743,13.313,13.313,0,0,0,4.615,3.937,12.527,12.527,0,0,0,5.841,1.42,12.659,12.659,0,0,0,5.906-1.42,12.732,12.732,0,0,0,4.55-3.937,6.575,6.575,0,0,1,1.969-1.743,4.682,4.682,0,0,1,2.356-.646h8.455a5,5,0,0,1,3.679,1.485,5,5,0,0,1,1.484,3.679v7.745a2.5,2.5,0,0,1-.742,1.839,2.5,2.5,0,0,1-1.839.742H81.307a2.5,2.5,0,0,1-1.839-.742,2.5,2.5,0,0,1-.742-1.839v-3.292a17.587,17.587,0,0,1-4.873,2.453,17.739,17.739,0,0,1-5.454.839,17.219,17.219,0,0,1-5.422-.871,18.162,18.162,0,0,1-4.905-2.485v3.356a2.5,2.5,0,0,1-.742,1.839,2.5,2.5,0,0,1-1.839.742Zm5.163-18.072a7.469,7.469,0,0,1-5.486-2.259A7.469,7.469,0,0,1,40-844.379a7.439,7.439,0,0,1,2.259-5.518,7.525,7.525,0,0,1,5.486-2.227,7.5,7.5,0,0,1,5.518,2.227,7.494,7.494,0,0,1,2.227,5.518,7.524,7.524,0,0,1-2.227,5.486A7.439,7.439,0,0,1,47.745-836.634Zm41.307,0a7.469,7.469,0,0,1-5.486-2.259,7.469,7.469,0,0,1-2.259-5.486,7.439,7.439,0,0,1,2.259-5.518,7.525,7.525,0,0,1,5.486-2.227A7.5,7.5,0,0,1,94.57-849.9a7.494,7.494,0,0,1,2.227,5.518,7.524,7.524,0,0,1-2.227,5.486A7.439,7.439,0,0,1,89.052-836.634Z" transform="translate(1021.391 2071.343)"/>
    <line id="선_2" data-name="선 2" x2="14" transform="translate(1082.5 1213.5)" fill="none" stroke="#000" stroke-linecap="round" stroke-width="3"/>
    <path id="패스_32" data-name="패스 32" d="M1094.989,1201.885l7.542,7.542-7.542,7.542" transform="translate(-5 4)" fill="none" stroke="#000" stroke-linecap="round" stroke-width="3"/>
  </g>
</svg>
