<svg xmlns="http://www.w3.org/2000/svg" width="94.262" height="85.04" viewBox="0 0 94.262 85.04">
  <g id="value-img" transform="translate(-3362.558 -1218.417)">
    <path id="패스_41" data-name="패스 41" d="M3836.264,1404.322c35.578-30.726,33.671-58.293,33.671-58.293h-11.077l19.051-23.194,18.32,24.08h-11.52s-2.264,25.2,31.985,57.407" transform="translate(-468 -102)" fill="none" stroke="#000" stroke-width="3"/>
    <path id="패스_42" data-name="패스 42" d="M3834.895,1372.288c11.312-7.711,16.681-20.369,16.681-20.369h7.688l-12.118-14.776-12.251,15.795h8.995l-1.721,3.288" transform="translate(-470.806 -87.898)" fill="none" stroke="#000" stroke-width="1.5"/>
    <path id="패스_43" data-name="패스 43" d="M3858.109,1371.429c-11.479-9.184-15.527-19.51-15.527-19.51h-7.687l12.118-14.776,12.251,15.795h-8.995l1.455,3.608" transform="translate(-403.974 -87.898)" fill="none" stroke="#000" stroke-width="1.5"/>
  </g>
</svg>
